<?xml version="1.0" standalone="no"?>
<!DOCTYPE svg PUBLIC "-//W3C//DTD SVG 20010904//EN"
 "http://www.w3.org/TR/2001/REC-SVG-20010904/DTD/svg10.dtd">
<svg version="1.0" xmlns="http://www.w3.org/2000/svg"
 width="2048.000000pt" height="2048.000000pt" viewBox="0 0 2048.000000 2048.000000"
 preserveAspectRatio="xMidYMid meet">

<g transform="translate(0.000000,2048.000000) scale(0.100000,-0.100000)"
fill="#000000" stroke="none">
<path d="M7770 18620 c0 -11 2 -20 4 -20 2 0 6 9 9 20 3 11 1 20 -4 20 -5 0
-9 -9 -9 -20z"/>
<path d="M8010 18541 c0 -11 5 -23 10 -26 6 -4 10 5 10 19 0 14 -4 26 -10 26
-5 0 -10 -9 -10 -19z"/>
<path d="M9810 17630 c-839 -43 -1686 -250 -2530 -620 -220 -96 -686 -334
-860 -439 -546 -329 -1018 -696 -1440 -1120 -578 -581 -1044 -1221 -1384
-1900 -93 -186 -108 -218 -187 -406 -291 -697 -464 -1418 -536 -2230 -25 -282
-25 -998 0 -1235 53 -503 164 -1028 330 -1565 78 -251 100 -312 213 -590 211
-523 589 -1154 991 -1656 134 -168 431 -504 569 -645 359 -365 776 -710 1174
-970 355 -232 965 -545 1335 -684 145 -55 185 -72 185 -80 0 -3 -11 -44 -25
-91 -41 -137 -48 -214 -25 -288 32 -108 75 -168 165 -233 153 -110 305 -127
471 -53 120 54 189 107 347 266 l158 159 59 -30 c137 -69 504 -121 1050 -150
386 -20 938 -4 1370 40 364 37 830 132 1185 242 72 22 166 50 210 63 231 68
624 227 924 375 178 88 596 333 786 461 282 191 432 306 750 578 292 250 543
507 811 827 259 311 334 408 432 559 36 55 98 150 137 210 109 168 121 187
227 375 154 271 270 511 382 787 122 299 302 914 371 1271 66 337 104 574 132
832 23 206 25 933 5 1180 -34 406 -62 608 -127 932 -106 526 -244 993 -407
1373 -166 385 -425 867 -626 1160 -287 418 -519 701 -871 1059 -375 383 -718
666 -1193 983 -354 237 -534 341 -928 532 -319 154 -407 192 -693 295 -655
237 -1172 351 -1862 412 -211 18 -830 26 -1075 14z m-288 -460 c24 -25 29 -36
23 -58 -16 -67 -63 -103 -158 -121 -34 -7 -89 -20 -122 -31 -33 -10 -76 -21
-95 -25 -100 -18 -251 -61 -341 -96 -106 -41 -231 -126 -281 -190 -68 -89
-136 -150 -185 -169 -44 -17 -53 -17 -63 -5 -7 8 -16 13 -20 10 -5 -3 -11 -1
-15 5 -4 6 -10 8 -14 6 -4 -3 -13 -1 -21 4 -13 8 -12 14 5 45 25 48 119 157
231 271 76 77 104 97 184 136 154 75 701 246 793 247 41 1 53 -4 79 -29z
m2162 -67 c179 -83 322 -247 361 -415 20 -89 12 -133 -70 -388 -24 -74 -55
-175 -70 -223 -15 -49 -29 -86 -32 -83 -3 2 2 26 10 53 59 190 69 240 56 268
-10 19 -9 19 4 2 14 -17 17 -12 36 49 16 49 22 89 21 153 -2 118 -3 135 -10
141 -10 8 -60 113 -60 126 0 24 -25 21 -41 -5 -11 -17 -13 -32 -7 -43 5 -11 3
-29 -6 -50 -8 -18 -15 -26 -16 -18 -1 13 -35 -71 -44 -111 -3 -9 -9 -25 -15
-35 -9 -18 -59 -171 -331 -1014 -56 -173 -128 -396 -160 -495 -32 -99 -108
-340 -169 -535 -61 -195 -138 -436 -170 -535 -32 -99 -105 -322 -161 -495
-282 -868 -463 -1393 -544 -1574 -14 -32 -26 -65 -26 -72 0 -9 45 2 158 40
376 126 884 288 992 316 25 7 160 49 300 95 245 80 374 114 386 102 4 -3 -3
-18 -13 -34 -11 -15 -18 -35 -16 -43 4 -13 3 -13 -6 0 -5 8 -12 12 -14 10 -2
-3 -18 -25 -37 -49 -19 -24 -42 -59 -52 -77 -9 -18 -27 -43 -40 -56 -47 -49
-85 -95 -171 -208 -105 -138 -129 -184 -362 -715 -7 -16 -30 -73 -49 -125 -20
-52 -41 -104 -46 -115 -73 -159 -194 -474 -327 -855 -22 -63 -32 -110 -24
-110 5 0 34 9 67 20 32 12 101 32 152 46 98 26 648 200 1072 339 638 208 682
220 772 212 95 -8 124 -34 185 -157 23 -47 25 -200 2 -250 l-16 -35 0 55 c-1
66 -20 159 -37 180 -7 8 -12 29 -12 47 l1 32 -28 -27 c-38 -36 -79 -105 -174
-292 -44 -85 -103 -193 -132 -240 -30 -47 -83 -141 -119 -210 -73 -138 -366
-656 -417 -735 -17 -27 -71 -115 -120 -195 -48 -80 -116 -190 -150 -245 -34
-55 -64 -105 -66 -110 -5 -14 -166 -276 -235 -385 -68 -106 -82 -123 -95 -114
-6 4 -16 0 -21 -7 -7 -10 -8 -9 -3 6 4 11 11 38 15 60 17 93 144 408 233 580
23 44 42 85 43 90 0 6 8 24 17 42 23 43 21 48 -9 28 -14 -9 -28 -14 -32 -11
-3 3 -1 6 5 6 6 0 13 7 17 15 4 12 -114 -80 -134 -104 -3 -4 -31 -24 -64 -46
-32 -22 -68 -49 -81 -60 -23 -21 -62 -50 -122 -91 -31 -21 -40 -34 -49 -77
-13 -59 -149 -563 -159 -588 -3 -9 -22 -24 -43 -33 -31 -15 -145 -91 -358
-238 -27 -18 -66 -42 -87 -53 -21 -11 -45 -28 -54 -37 -9 -10 -22 -18 -30 -18
-30 0 230 294 359 405 l57 50 36 160 c96 437 119 511 165 539 31 18 37 30 20
41 -5 3 -10 11 -10 17 0 6 8 4 18 -5 17 -15 21 -13 71 30 l53 46 -24 13 c-23
13 -23 13 -1 14 17 0 21 5 20 25 -1 14 -5 25 -10 25 -4 0 -16 9 -27 20 -13 13
-33 20 -60 20 -51 0 -52 -17 -2 -23 26 -3 22 -4 -13 -3 -55 1 -103 30 -85 51
6 7 3 17 -10 28 -17 14 -20 14 -20 2 0 -8 -5 -15 -10 -15 -6 0 -8 -11 -4 -25
8 -31 -3 -33 -16 -2 -9 20 -10 19 -8 -9 2 -17 -4 -39 -11 -48 -7 -9 -11 -16
-8 -16 4 0 0 -18 -8 -40 -8 -22 -14 -44 -15 -48 -2 -27 -26 -53 -153 -165 -78
-69 -151 -133 -162 -143 -11 -11 -58 -53 -105 -94 -46 -41 -89 -79 -96 -85 -6
-5 -41 -37 -79 -70 -85 -74 -417 -372 -504 -452 l-63 -58 57 -195 c51 -171 73
-255 115 -428 12 -50 5 -64 -128 -287 -119 -198 -149 -259 -157 -318 -13 -97
-268 -903 -315 -997 -16 -30 -72 -122 -125 -205 -54 -82 -142 -224 -197 -315
-55 -91 -105 -171 -110 -178 -22 -26 -17 -2 12 64 17 38 40 98 50 134 10 36
48 166 85 290 96 330 206 737 284 1058 l69 284 115 171 c109 162 177 280 177
306 0 12 -41 150 -105 351 -46 146 -95 325 -95 348 0 24 272 290 519 508 227
198 562 497 629 559 38 36 45 49 61 120 44 194 60 273 64 315 2 25 2 37 0 28
-5 -19 -23 -25 -23 -8 0 6 -8 5 -20 -2 -13 -9 -21 -25 -21 -48 -2 -32 -2 -33
-6 -6 l-5 29 -64 -7 c-54 -5 -64 -4 -64 9 0 8 -7 15 -15 15 -8 0 -15 -5 -15
-11 0 -6 -9 -1 -21 12 l-20 24 7 -25 c4 -14 12 -28 18 -32 7 -5 4 -8 -6 -8
-10 0 -18 5 -18 11 0 6 -6 9 -12 6 -7 -2 -12 -10 -10 -16 2 -12 -25 -71 -34
-71 -2 0 0 9 6 21 7 11 9 23 6 26 -8 8 -57 -97 -51 -107 4 -6 2 -10 -2 -10 -5
0 -21 -26 -37 -59 -34 -73 -53 -93 -306 -326 -113 -104 -247 -230 -298 -279
-114 -111 -107 -105 -97 -81 29 75 55 161 55 184 0 14 8 41 18 58 17 32 312
313 580 553 76 69 148 137 158 152 11 17 28 28 42 28 13 0 22 6 22 16 0 10 -6
14 -14 11 -13 -5 -61 35 -52 44 3 2 -4 15 -16 29 -11 14 -16 19 -12 11 5 -11
3 -13 -11 -8 -11 5 -25 0 -40 -15 -12 -13 -48 -45 -80 -73 -32 -27 -63 -54
-69 -60 -153 -138 -286 -249 -292 -242 -3 3 2 19 11 36 8 17 24 57 34 89 10
31 38 109 61 172 71 196 223 680 216 687 -3 3 -71 -18 -153 -45 -81 -28 -245
-80 -363 -117 -118 -37 -273 -86 -345 -110 -238 -79 -540 -175 -550 -175 -18
0 43 28 77 35 18 4 38 11 43 15 6 3 39 17 75 30 36 13 70 27 77 32 7 6 17 7
22 4 9 -6 90 21 101 33 14 16 61 33 75 27 9 -3 13 -2 10 4 -3 6 5 10 19 10 14
0 28 5 32 11 4 8 -4 9 -27 5 -23 -5 -29 -4 -19 2 8 5 36 13 63 16 26 4 45 11
42 16 -3 5 5 11 17 15 38 10 68 28 63 36 -3 4 11 13 30 19 30 10 33 14 21 26
-18 17 -121 12 -186 -9 -25 -8 -112 -36 -195 -62 -277 -87 -309 -98 -400 -130
-118 -43 -587 -206 -645 -224 -14 -5 -54 -19 -90 -33 -84 -32 -182 -68 -295
-108 -49 -17 -103 -37 -120 -45 -16 -7 -55 -20 -85 -30 -56 -18 -68 -22 -130
-45 -19 -7 -50 -15 -68 -17 -18 -3 -35 -9 -38 -14 -11 -19 -24 -8 -18 15 3 13
1 27 -5 30 -6 4 -11 0 -11 -8 0 -9 -4 -16 -9 -16 -6 0 1 30 14 68 34 99 84
233 99 267 14 31 58 161 119 350 20 61 55 162 78 225 102 281 253 727 338
1000 70 222 159 485 241 715 38 105 117 334 175 510 59 176 128 374 152 440
25 66 94 264 154 440 220 646 882 2644 958 2890 57 186 211 642 236 700 65
151 207 297 353 362 140 62 147 63 722 60 521 -2 525 -2 574 -24z m-3397 -128
c46 -53 25 -105 -59 -144 -99 -45 -292 -124 -305 -124 -6 0 -9 -6 -6 -14 4 -9
0 -11 -11 -7 -14 5 -83 -29 -97 -48 -3 -5 -10 -8 -15 -7 -19 6 -73 -13 -71
-24 1 -7 -6 -11 -15 -9 -10 2 -18 -2 -18 -8 0 -5 -9 -10 -20 -10 -28 0 -71
-30 -63 -43 3 -6 1 -7 -5 -3 -17 10 -115 -48 -170 -101 -65 -62 -132 -144
-132 -161 0 -7 -13 -27 -30 -45 -26 -28 -138 -240 -203 -387 -14 -30 -44 -98
-68 -150 -23 -52 -48 -104 -55 -115 -6 -11 -15 -31 -19 -45 -12 -38 -83 -147
-103 -156 -52 -22 -93 -9 -112 35 -7 17 -16 31 -21 31 -10 0 -5 15 29 90 25
57 60 137 132 305 106 246 216 445 320 575 175 219 360 348 655 455 94 34 198
76 300 120 75 32 129 29 162 -10z m4178 -130 c113 -56 348 -196 448 -265 177
-125 342 -318 406 -477 16 -37 44 -99 63 -138 52 -104 200 -503 192 -516 -4
-8 -3 -9 4 -5 7 4 13 1 13 -6 5 -51 9 -72 19 -82 7 -7 10 -6 10 4 0 7 3 11 6
8 3 -4 1 -16 -6 -27 -12 -23 -2 -28 20 -8 12 10 12 9 1 -5 -10 -13 -10 -21 0
-40 18 -34 72 -79 80 -66 3 5 9 -2 13 -16 3 -14 13 -26 21 -26 8 0 15 -5 15
-11 0 -6 7 -8 16 -5 8 3 13 2 10 -3 -8 -12 21 -34 34 -26 5 3 10 0 10 -8 0
-15 67 -72 86 -72 6 0 36 -22 65 -48 30 -26 46 -45 35 -41 -16 6 -17 5 -6 -16
10 -18 9 -25 -4 -38 -15 -15 -16 -15 -16 0 0 18 -18 34 -27 24 -4 -3 2 -14 11
-25 20 -22 30 -81 14 -81 -28 0 -238 186 -238 212 -1 7 -26 30 -56 51 -31 22
-76 67 -101 100 -25 34 -51 66 -59 70 -8 4 -14 14 -14 21 0 6 -15 28 -32 48
-43 47 -57 71 -127 213 -69 139 -117 248 -126 288 -4 15 -11 27 -16 27 -5 0
-9 6 -9 13 0 7 -8 22 -18 33 -10 10 -25 34 -32 52 -8 17 -18 32 -22 32 -4 0
-5 6 -2 14 3 7 -6 26 -20 41 -27 29 -33 41 -17 31 5 -4 7 3 4 14 -3 12 -8 18
-11 15 -3 -3 -16 14 -30 37 -14 24 -44 64 -69 89 -24 25 -41 48 -38 51 3 3 -8
10 -24 16 -21 8 -29 16 -25 26 4 10 -8 25 -34 43 -23 15 -42 37 -44 48 -2 13
-25 31 -65 52 -34 17 -75 40 -90 50 -46 31 -162 89 -248 123 -44 17 -94 42
-111 55 -40 30 -53 85 -29 121 16 25 71 64 90 64 6 0 42 -16 80 -35z m-2996
-21 c28 -6 31 -10 31 -44 0 -63 -24 -82 -167 -130 -145 -48 -219 -83 -285
-133 -25 -19 -56 -40 -68 -47 -20 -11 -22 -10 -17 3 6 15 -16 16 -85 3 -20 -4
-13 19 14 48 22 24 17 31 -11 16 -40 -21 -23 15 27 57 63 53 116 82 247 139
209 89 250 100 314 88z m-1919 -328 c0 -2 -8 -10 -17 -17 -16 -13 -17 -12 -4
4 13 16 21 21 21 13z m426 -97 c41 -39 30 -73 -42 -126 -145 -107 -196 -147
-213 -168 -10 -14 -24 -25 -30 -25 -5 0 -24 -14 -41 -30 -17 -17 -36 -28 -41
-24 -6 3 -13 -4 -16 -15 -6 -22 -6 -22 -20 -2 -8 12 -20 18 -29 14 -26 -10
-36 19 -13 40 21 20 25 47 7 65 -11 11 -6 18 102 136 39 42 139 117 197 147
48 24 106 19 139 -12z m-587 -64 c-34 -41 -64 -75 -66 -75 -15 0 107 148 125
150 1 0 -25 -34 -59 -75z m1531 67 c0 -13 -12 -22 -22 -16 -10 6 -1 24 13 24
5 0 9 -4 9 -8z m438 -61 c6 -40 -27 -95 -81 -137 -28 -21 -74 -61 -101 -87
-57 -56 -88 -72 -156 -79 -18 -2 -28 4 -38 24 -11 24 -10 32 7 65 54 108 242
246 326 240 34 -2 41 -6 43 -26z m2527 19 c-3 -5 -10 -10 -16 -10 -5 0 -9 5
-9 10 0 6 7 10 16 10 8 0 12 -4 9 -10z m1788 -41 c23 -12 74 -43 112 -69 39
-25 156 -100 260 -165 269 -168 360 -232 525 -369 202 -166 361 -330 496 -509
63 -83 123 -178 99 -155 -4 4 -16 3 -26 -2 -12 -7 -20 -7 -24 0 -3 5 -15 10
-26 10 -10 0 -19 5 -19 10 0 6 -8 14 -17 17 -25 9 -46 31 -77 77 -14 21 -26
35 -26 30 0 -5 -20 13 -45 39 -25 26 -55 47 -65 47 -11 0 -20 6 -20 14 0 8
-10 16 -22 18 -19 2 -22 8 -20 31 2 17 -1 27 -10 27 -7 0 -31 17 -54 38 -22
20 -67 60 -98 87 -32 28 -72 63 -89 79 -18 15 -90 72 -162 126 -71 54 -140
108 -152 119 -12 12 -42 32 -65 45 -41 21 -143 81 -375 220 -57 34 -122 72
-146 86 -86 49 -97 60 -97 95 0 24 7 39 26 54 34 27 64 26 117 0z m-6841 -26
c15 -15 28 -32 28 -38 0 -21 -65 -72 -150 -119 -79 -43 -309 -193 -356 -233
-28 -24 -55 -43 -59 -43 -4 0 -29 -19 -54 -42 -26 -24 -58 -52 -73 -63 -82
-64 -326 -291 -397 -370 -150 -165 -181 -203 -181 -218 0 -4 -13 -27 -29 -50
-33 -49 -91 -170 -91 -191 0 -8 -4 -18 -10 -21 -5 -3 -14 -24 -20 -45 -8 -28
-20 -44 -40 -55 -37 -19 -37 -19 -44 7 -5 21 -6 21 -18 6 -9 -13 -17 -15 -28
-8 -8 5 -11 10 -6 10 5 0 3 7 -5 16 -10 13 -10 17 2 25 10 7 11 11 2 17 -28
18 93 276 191 405 189 249 434 487 651 633 61 41 128 87 150 103 102 74 358
244 406 271 67 37 95 37 131 3z m5839 -40 c78 -39 164 -116 193 -172 21 -39
15 -62 -13 -54 -13 3 -21 1 -21 -6 0 -7 -5 -9 -12 -4 -7 4 -29 8 -50 8 -36 1
-106 30 -120 50 -5 6 -8 5 -8 -3 0 -10 -3 -10 -14 0 -8 7 -12 16 -10 19 2 3
-13 12 -33 20 -75 29 -78 32 -81 78 -3 36 1 48 24 72 15 16 38 29 50 29 12 0
55 -17 95 -37z m-5421 -110 c0 -5 -10 -19 -21 -33 l-21 -25 18 33 c18 32 24
38 24 25z m4617 -185 c-3 -8 -6 -5 -6 6 -1 11 2 17 5 13 3 -3 4 -12 1 -19z
m1827 -92 c18 -8 96 -56 172 -107 278 -185 435 -313 510 -412 62 -82 59 -94
-16 -91 -33 1 -73 -1 -89 -6 -24 -7 -33 -4 -48 12 -10 11 -45 41 -78 67 -33
25 -88 71 -121 101 -34 30 -79 64 -100 75 -49 25 -73 41 -201 138 -57 42 -109
77 -116 77 -18 0 -40 57 -33 86 8 31 49 74 71 74 9 0 31 -6 49 -14z m-1214
-329 c39 -28 98 -65 128 -81 36 -20 107 -86 121 -113 6 -12 11 -33 11 -47 0
-39 -30 -41 -98 -6 -33 16 -63 30 -67 30 -4 0 -26 18 -49 40 -22 21 -61 56
-86 77 -115 98 -125 110 -111 127 7 9 17 14 21 11 5 -3 11 -1 14 4 7 11 79
-16 116 -42z m-5200 1 c0 -16 -3 -19 -11 -11 -6 6 -8 16 -5 22 11 17 16 13 16
-11z m1190 -1 c0 -8 10 -22 21 -33 34 -30 40 -58 23 -107 -10 -28 -30 -56 -59
-80 -24 -20 -47 -37 -50 -37 -4 0 -19 -8 -33 -19 -15 -10 -83 -41 -152 -69
-210 -84 -452 -201 -553 -265 -207 -133 -321 -218 -451 -337 -140 -128 -295
-280 -323 -316 -29 -38 -70 -64 -102 -64 -14 0 -19 5 -15 15 4 10 0 15 -15 15
-12 0 -21 6 -21 13 0 33 34 114 58 135 14 13 35 39 48 58 33 48 131 163 175
204 58 55 149 133 183 157 17 12 45 36 61 54 17 17 44 38 60 46 17 9 32 19 35
23 9 12 192 140 200 140 5 0 15 6 22 14 14 13 61 37 293 144 112 53 336 142
355 142 5 0 50 41 99 90 67 68 95 90 115 90 15 0 26 -6 26 -13z m-1206 -38 c6
-6 -47 -193 -69 -245 -8 -19 -20 -34 -28 -34 -7 0 -26 -16 -41 -35 -26 -32
-84 -70 -93 -61 -7 7 18 49 41 67 21 17 29 78 13 90 -5 3 3 19 18 34 14 16 24
34 21 41 -2 6 5 22 17 34 11 13 21 30 22 39 4 39 78 91 99 70z m1665 -188 c14
-8 17 -22 16 -75 -1 -67 -21 -106 -52 -106 -8 0 -11 -4 -8 -10 3 -5 1 -10 -5
-10 -6 0 -26 -11 -43 -24 -18 -14 -53 -34 -77 -45 -25 -11 -39 -21 -32 -21 6
0 12 -3 12 -7 0 -5 -16 -8 -35 -9 -20 0 -49 -10 -65 -22 -16 -12 -35 -22 -42
-22 -7 0 -26 -7 -41 -15 -44 -23 -166 -65 -188 -65 -10 0 -19 -4 -19 -8 0 -5
-33 -21 -72 -36 -40 -15 -86 -34 -103 -42 -72 -33 -175 -73 -175 -67 0 3 -8
-1 -17 -9 -10 -8 -52 -32 -93 -52 -41 -21 -95 -51 -120 -66 -52 -33 -76 -39
-40 -9 l25 20 -36 -18 c-23 -11 -32 -21 -25 -25 7 -5 5 -8 -5 -8 -9 0 -22 -7
-29 -15 -7 -8 -18 -15 -24 -15 -6 1 -1 9 11 19 20 17 21 20 6 25 -10 4 -20 1
-25 -9 -5 -8 -14 -15 -19 -15 -6 0 -7 5 -4 10 3 6 -4 10 -17 9 -14 0 -17 -3
-9 -6 23 -9 -110 -54 -141 -47 -21 4 -28 2 -28 -10 0 -9 -12 -18 -27 -21 -16
-4 -35 -10 -43 -16 -8 -5 -42 -23 -75 -40 -33 -17 -74 -43 -92 -58 -65 -54
-125 -93 -131 -86 -4 4 -1 10 6 12 6 3 12 19 12 35 0 25 12 43 58 88 31 32 79
81 107 111 55 58 263 218 328 251 23 11 75 42 117 67 41 26 92 55 113 65 20 9
38 22 39 29 0 7 2 17 2 23 2 14 32 44 44 44 5 0 15 7 22 15 7 9 19 14 27 11 7
-3 13 -1 13 4 0 6 5 10 11 10 19 0 -9 -28 -52 -52 -68 -38 -50 -47 29 -14 126
52 145 64 139 92 -3 16 0 24 9 24 8 0 14 4 14 9 0 9 169 71 196 71 13 0 14 -3
4 -15 -7 -8 -19 -15 -27 -15 -7 0 -30 -7 -49 -15 -42 -17 -38 -40 4 -23 15 5
124 44 242 85 332 115 432 139 479 114z m4271 -6 c17 -9 30 -21 30 -29 0 -7
14 -27 30 -44 17 -18 30 -39 30 -47 0 -8 11 -24 24 -36 13 -11 32 -39 42 -62
43 -99 132 -193 264 -282 47 -31 94 -65 105 -75 11 -10 61 -46 110 -80 132
-92 255 -192 255 -208 0 -7 4 -11 8 -8 13 8 25 -4 96 -92 77 -96 103 -135 168
-252 94 -168 148 -280 148 -307 0 -23 -2 -25 -11 -13 -8 12 -9 9 -5 -11 6 -26
5 -27 -40 -24 -38 3 -51 9 -80 41 -33 37 -74 111 -74 134 0 18 -46 83 -104
145 -49 51 -54 61 -41 71 13 10 12 13 -10 18 -15 4 -30 19 -39 39 -19 44 -219
239 -301 294 -22 15 -62 45 -90 68 -27 22 -68 52 -90 67 -22 14 -55 40 -73 57
-18 17 -39 31 -45 31 -7 0 -32 19 -57 41 -25 23 -60 52 -77 66 -18 14 -33 30
-33 35 0 9 -2 13 -50 69 -17 21 -28 43 -24 52 3 9 -3 21 -16 30 -12 8 -20 21
-18 28 4 18 -56 164 -103 251 -25 47 11 64 71 33z m1800 -199 c0 -8 6 -17 13
-20 6 -3 3 -5 -8 -3 -20 2 -35 37 -16 37 6 0 11 -6 11 -14z m-8716 -47 c16
-12 26 -30 26 -46 0 -14 -31 -95 -70 -181 -38 -85 -70 -160 -70 -166 0 -6 -22
-56 -48 -110 -34 -69 -51 -94 -55 -83 -4 10 -13 17 -21 17 -9 0 -20 9 -26 21
-11 19 -13 19 -29 5 -10 -9 -20 -16 -23 -16 -14 0 49 261 108 441 23 72 56
118 94 132 35 13 88 6 114 -14z m6311 -75 c144 -68 440 -226 497 -265 31 -21
92 -57 135 -80 85 -45 110 -63 228 -158 99 -80 126 -107 117 -117 -4 -4 1 -4
11 -1 11 4 16 3 12 -3 -3 -6 3 -24 15 -41 13 -17 20 -38 17 -49 -3 -11 -2 -20
1 -20 4 0 8 -11 8 -25 2 -32 -10 -32 -48 0 -34 28 -56 32 -64 10 -9 -22 -44
-19 -44 4 0 15 -6 19 -27 18 -15 -1 -28 3 -28 9 0 6 -14 23 -30 37 -24 20 -35
23 -49 15 -10 -6 -16 -7 -14 -2 3 5 2 19 -3 31 -5 15 -24 26 -66 37 -32 9 -69
23 -83 30 -14 7 -31 11 -37 9 -17 -6 -50 27 -36 35 7 4 1 14 -13 25 -25 18
-33 10 -12 -11 9 -9 9 -12 -1 -12 -18 0 -43 28 -38 43 4 13 -58 67 -77 67 -6
0 -28 11 -49 25 -20 14 -37 23 -37 19 0 -4 -10 2 -22 14 -13 11 -60 39 -105
61 -45 22 -85 46 -90 54 -11 18 -83 58 -93 52 -4 -3 -13 2 -20 10 -7 8 -18 15
-25 15 -7 0 -18 7 -25 15 -7 8 -20 15 -30 15 -20 0 -46 68 -37 99 3 12 1 21
-5 21 -5 0 -8 10 -6 23 2 13 10 22 20 22 9 0 20 4 24 8 12 11 43 2 129 -39z
m-7501 5 c19 -15 26 -30 26 -55 0 -19 -4 -34 -9 -34 -11 0 -64 -119 -91 -205
-40 -127 -50 -151 -88 -204 -35 -50 -112 -133 -163 -176 -48 -41 -158 -173
-213 -257 -64 -96 -116 -262 -136 -438 -18 -153 -31 -176 -174 -315 -67 -66
-143 -150 -169 -186 -77 -109 -152 -279 -197 -444 -12 -44 -28 -100 -36 -125
-37 -122 -52 -323 -27 -363 3 -5 -1 -20 -8 -34 -11 -20 -11 -26 1 -33 8 -5 13
-26 13 -54 0 -28 5 -47 14 -50 7 -3 13 -15 13 -27 0 -21 11 -62 30 -114 19
-52 33 -136 32 -195 -1 -86 -19 -220 -37 -271 -8 -23 -13 -44 -11 -48 5 -8
-21 -171 -29 -179 -3 -3 -12 -7 -21 -8 -11 -2 -13 5 -9 34 6 35 5 36 -8 14 -7
-12 -16 -19 -20 -16 -4 4 -7 2 -7 -4 0 -7 5 -12 10 -12 17 0 11 -26 -9 -44
-27 -25 -20 -48 19 -61 41 -14 30 -23 -25 -21 -36 1 -40 4 -43 30 -2 16 1 33
7 39 6 6 11 20 11 30 0 14 -5 18 -20 14 -15 -4 -20 0 -20 13 0 11 4 22 10 25
5 3 7 19 3 35 -3 18 0 36 7 45 7 8 10 24 7 35 -3 11 1 27 9 34 7 8 16 43 18
78 3 34 17 95 30 134 23 64 26 121 6 109 -7 -4 -18 19 -24 50 -13 65 -20 92
-28 102 -6 7 -8 20 -4 28 9 23 7 30 -6 30 -8 0 -14 17 -16 43 -2 23 -7 42 -13
42 -5 0 -9 8 -9 18 0 10 -4 22 -10 28 -5 5 -11 23 -13 39 -2 17 -6 37 -10 45
-3 8 -11 56 -17 105 -25 216 -1 379 93 635 100 273 216 443 388 571 72 53 118
109 138 169 7 19 18 82 26 140 39 310 95 416 348 660 75 73 146 151 164 181
17 30 55 123 83 208 28 84 60 165 71 180 42 53 98 65 143 30z m729 -20 c48
-22 71 -100 48 -161 -10 -29 -46 -146 -66 -218 -26 -94 -95 -200 -181 -276
-156 -140 -197 -180 -242 -238 -46 -60 -122 -203 -122 -231 0 -8 -5 -15 -11
-15 -6 0 -8 -9 -4 -20 4 -12 2 -26 -3 -33 -11 -13 -12 -16 -12 -49 0 -15 -3
-19 -8 -11 -10 15 -47 -126 -61 -232 -6 -44 -13 -132 -17 -195 -10 -202 -60
-345 -79 -230 -4 22 -11 43 -16 46 -6 3 -7 14 -4 25 4 10 2 19 -3 19 -18 0
-30 139 -28 320 2 158 7 201 29 296 69 295 148 430 386 653 73 68 141 141 151
161 11 21 32 89 48 152 40 155 74 225 115 237 44 13 52 13 80 0z m5718 -12
c-10 -9 -11 -8 -5 6 3 10 9 15 12 12 3 -3 0 -11 -7 -18z m3339 -34 c31 -32 44
-60 78 -168 23 -71 54 -150 70 -175 19 -30 70 -77 148 -137 147 -111 248 -211
310 -306 130 -195 189 -511 163 -863 -18 -248 1 -317 141 -514 107 -150 137
-222 160 -386 9 -61 9 -100 0 -160 -24 -168 -49 -267 -77 -301 -13 -16 -14
-15 -9 20 5 38 5 38 -24 32 -25 -6 -30 -3 -36 19 -3 14 -3 29 0 35 4 5 3 12
-2 15 -5 3 -9 60 -10 128 -1 67 -7 135 -13 150 -6 15 -9 40 -6 55 3 18 -2 37
-15 55 -10 15 -16 33 -12 39 3 6 3 14 -2 18 -9 6 -31 44 -68 116 -11 22 -29
49 -39 60 -10 11 -28 36 -40 55 -12 19 -30 44 -40 55 -10 11 -27 40 -38 65
-16 35 -22 42 -30 30 -7 -11 -8 -7 -3 15 4 20 2 26 -4 17 -9 -14 -14 3 -32
113 -4 28 -3 145 2 260 12 252 1 384 -44 523 -27 85 -64 168 -87 196 -5 6 -10
14 -10 19 -4 45 -145 213 -188 223 -12 4 -23 10 -23 15 0 5 -11 14 -25 19 -14
5 -25 14 -25 20 0 5 -8 10 -17 10 -22 1 -53 23 -53 39 0 6 -6 11 -14 11 -8 0
-18 5 -22 12 -4 7 -3 8 4 4 8 -4 10 -2 6 8 -3 8 -12 17 -20 20 -10 4 -13 1 -9
-7 4 -6 -18 14 -48 46 -46 49 -59 72 -86 150 -17 51 -47 131 -66 179 -45 113
-45 137 0 177 53 46 105 44 155 -6z m-3393 -145 c-3 -7 -5 -2 -5 12 0 14 2 19
5 13 2 -7 2 -19 0 -25z m-3887 -272 c0 -2 -7 -7 -16 -10 -8 -3 -12 -2 -9 4 6
10 25 14 25 6z m1160 -36 c0 -5 -14 -44 -31 -87 -17 -43 -45 -118 -61 -168
-16 -49 -33 -94 -37 -98 -5 -5 -73 -36 -152 -70 -401 -173 -855 -493 -1230
-867 -304 -303 -429 -455 -649 -784 -164 -245 -234 -373 -344 -628 -30 -70
-62 -138 -70 -150 l-16 -22 0 26 0 27 -30 -29 c-48 -47 -80 -37 -80 25 0 13
-4 27 -10 30 -5 3 -10 17 -10 31 0 14 -4 22 -10 19 -14 -9 -13 5 11 92 58 216
157 433 349 769 113 196 319 473 504 676 330 362 511 514 971 818 171 113 499
271 725 351 138 49 170 56 170 39z m3316 -95 c168 -72 485 -246 663 -362 392
-257 700 -546 1047 -983 248 -313 486 -738 617 -1100 25 -69 47 -141 50 -159
6 -34 -9 -71 -29 -71 -7 0 -12 -24 -13 -62 -1 -34 -3 -64 -6 -66 -2 -2 -12 16
-23 40 l-20 43 -1 -42 c-1 -56 -15 -55 -31 2 -15 54 -25 51 -21 -6 1 -26 -2
-38 -9 -34 -5 3 -10 12 -10 20 0 20 -101 268 -143 351 -50 98 -134 244 -230
399 -334 535 -819 1042 -1312 1372 -202 134 -505 298 -682 369 -40 16 -73 33
-73 37 0 11 80 290 87 299 6 11 2 13 139 -47z m-725 -22 c-12 -20 -14 -14 -5
12 4 9 9 14 11 11 3 -2 0 -13 -6 -23z m2709 -129 c0 -8 -4 -12 -10 -9 -5 3
-10 10 -10 16 0 5 5 9 10 9 6 0 10 -7 10 -16z m-8262 -247 c2 -10 -25 -77 -61
-150 -36 -73 -77 -161 -91 -197 -15 -36 -38 -87 -51 -115 -13 -27 -29 -68 -35
-90 -27 -91 -52 -195 -66 -270 -8 -44 -19 -100 -24 -125 -6 -25 -13 -56 -16
-70 -3 -14 -7 -81 -9 -150 -5 -178 13 -190 80 -57 20 40 40 79 45 87 5 8 11
27 14 42 4 15 19 40 34 55 16 15 43 64 62 108 53 126 127 250 187 316 31 33
63 64 72 69 20 10 121 -7 139 -24 10 -10 -1 -28 -59 -92 -39 -43 -90 -104
-114 -134 -43 -56 -155 -258 -189 -340 -10 -25 -22 -54 -27 -65 -5 -11 -28
-65 -52 -120 -23 -55 -57 -127 -75 -160 -18 -33 -45 -83 -60 -110 -52 -97 -80
-202 -97 -360 -15 -152 -19 -164 -130 -385 -87 -175 -88 -178 -130 -385 -33
-163 -34 -191 -9 -230 25 -40 41 -121 38 -190 -2 -38 -1 -62 2 -52 3 9 10 17
16 17 6 0 8 10 4 24 -3 14 -1 26 5 28 8 3 8 14 1 41 -6 20 -7 35 -2 32 5 -3
12 5 16 17 9 28 28 48 48 48 11 0 16 9 16 30 0 17 5 30 11 30 5 0 8 -4 5 -8
-2 -4 -7 -48 -10 -97 -3 -50 -10 -117 -16 -150 -21 -122 -11 -622 19 -980 19
-215 109 -663 170 -840 48 -141 62 -182 76 -215 7 -19 28 -73 45 -120 17 -47
35 -94 40 -105 4 -11 23 -56 40 -100 63 -156 210 -445 285 -560 18 -27 74
-117 125 -200 97 -155 117 -183 368 -510 93 -122 450 -477 622 -620 83 -69
215 -169 376 -285 189 -136 720 -425 908 -493 13 -5 17 -14 13 -30 -17 -76
-63 -235 -112 -382 -30 -93 -62 -197 -70 -230 -16 -72 -52 -155 -66 -155 -5 0
-12 6 -14 13 -3 6 -19 13 -37 13 -17 1 -36 8 -42 15 -6 8 -31 21 -56 28 -25 7
-55 18 -67 23 -12 6 -32 8 -45 5 -17 -5 -27 -1 -36 13 -7 11 -23 20 -36 20
-13 0 -29 7 -36 15 -7 8 -18 15 -26 15 -7 0 -19 10 -25 22 -8 14 -14 18 -17
10 -5 -15 -34 -16 -48 -2 -9 9 -48 18 -149 35 -16 2 -31 9 -33 15 -2 5 -16 10
-30 10 -15 0 -43 4 -62 10 -19 5 -73 11 -120 14 -47 3 -100 8 -117 12 -35 7
-45 23 -15 25 9 0 12 3 5 5 -7 3 -22 0 -35 -7 -13 -8 -27 -12 -33 -10 -5 2
-26 4 -45 6 -19 1 -43 3 -53 4 -14 1 -17 6 -12 21 7 21 -9 28 -20 10 -10 -15
-97 -1 -112 17 -7 9 -19 13 -28 10 -21 -9 -45 2 -45 20 0 11 -7 14 -22 10 -13
-3 -32 1 -42 9 -11 8 -29 14 -41 14 -12 0 -25 4 -30 8 -6 5 -30 15 -55 22 -25
8 -58 24 -75 36 -16 12 -46 25 -65 29 -19 4 -45 13 -57 21 -25 16 -53 19 -53
5 0 -5 19 -33 43 -62 24 -30 60 -75 80 -101 26 -33 65 -63 130 -99 50 -28 112
-66 137 -82 61 -42 130 -116 130 -140 0 -17 -5 -19 -37 -14 -26 5 -39 2 -48
-9 -9 -13 -18 -9 -60 31 -35 32 -60 47 -83 49 -18 2 -45 14 -60 28 -15 13 -53
36 -84 51 -33 16 -69 42 -84 62 -15 19 -37 38 -50 41 -13 3 -24 11 -24 18 0
20 -68 86 -89 86 -15 0 -21 6 -21 21 0 12 -8 23 -20 26 -11 3 -20 14 -20 24 0
10 -4 21 -10 24 -5 3 -10 13 -10 21 0 9 -25 40 -55 69 -30 30 -55 59 -55 64 0
5 -13 12 -28 16 -15 3 -41 21 -57 40 -15 19 -36 35 -45 35 -11 0 -16 8 -16 22
1 17 -14 33 -56 61 -53 35 -172 145 -209 193 -9 12 -33 50 -54 85 -20 35 -48
76 -61 92 -13 16 -24 34 -24 41 0 15 -52 66 -67 66 -6 0 -41 25 -78 56 -69 56
-133 94 -215 126 -55 22 -64 22 -56 3 3 -9 0 -15 -10 -15 -17 0 -97 41 -102
53 -2 4 -9 7 -15 7 -15 0 -57 41 -57 56 0 8 -12 20 -28 28 -15 8 -36 23 -46
35 -11 12 -25 21 -32 21 -19 0 -54 32 -47 42 3 5 -4 12 -16 15 -12 3 -21 10
-21 15 0 5 -16 16 -35 24 -37 15 -46 40 -17 47 13 3 12 6 -10 15 -14 6 -29 20
-33 31 -3 12 -10 21 -15 21 -5 0 -52 43 -105 95 -53 52 -99 95 -103 95 -4 0
-16 16 -27 36 -10 19 -27 40 -37 45 -22 12 -61 90 -50 101 5 5 26 1 48 -9 84
-39 217 -145 382 -308 96 -93 195 -185 220 -203 75 -54 191 -108 278 -130 159
-40 288 -125 385 -255 33 -43 59 -81 59 -85 0 -5 5 -13 12 -20 7 -7 24 -42 38
-78 31 -77 77 -128 151 -168 121 -64 217 -135 284 -209 38 -43 73 -77 77 -77
11 0 -3 32 -24 55 -10 11 -40 44 -68 74 -45 48 -126 194 -145 260 -8 28 7 41
50 41 53 0 127 -54 231 -167 300 -329 346 -349 950 -413 172 -18 318 -39 384
-54 14 -4 18 -3 10 0 -8 4 -20 13 -27 20 -11 10 -10 13 5 17 9 3 2 5 -15 6
-23 1 -33 6 -33 16 0 9 -7 18 -16 22 -13 5 -13 7 -2 14 10 7 10 9 -3 9 -26 0
-329 125 -482 198 -141 68 -347 190 -442 262 -89 67 -105 75 -116 59 -7 -11
-9 -12 -9 0 0 10 -3 11 -13 3 -15 -13 -77 30 -77 54 0 8 -3 14 -7 14 -16 1
-276 251 -279 267 -1 7 2 15 7 19 18 11 8 24 -18 24 -36 -1 -136 22 -191 45
-35 14 -176 119 -285 210 -9 8 -21 15 -26 15 -4 0 -25 14 -46 30 -21 17 -44
30 -51 30 -16 0 -74 33 -74 43 0 4 -7 7 -15 7 -8 0 -15 -7 -15 -15 0 -20 -12
-19 -54 4 -19 11 -42 18 -52 17 -9 -1 -25 4 -35 13 -38 34 -49 41 -49 32 0 -6
-11 -6 -30 0 -16 6 -30 15 -30 19 0 5 -9 12 -21 15 -11 4 -18 9 -15 12 8 9
-43 33 -69 33 -14 0 -51 28 -100 75 -43 41 -87 75 -97 75 -10 0 -18 6 -18 14
0 8 -9 18 -21 21 -11 4 -28 25 -39 49 -10 25 -38 60 -68 84 -43 36 -51 40 -62
27 -7 -9 -15 -13 -18 -10 -3 3 3 11 13 19 17 12 17 15 -16 44 -19 17 -42 32
-51 32 -11 0 -18 8 -18 20 0 11 -12 30 -26 43 -15 12 -64 54 -110 94 -45 39
-125 103 -177 141 -83 63 -119 104 -99 116 4 2 24 7 45 10 27 5 37 4 32 -3 -3
-6 1 -11 9 -11 8 0 30 -6 48 -14 18 -8 48 -21 66 -28 17 -7 32 -16 32 -19 0
-8 43 -25 83 -34 56 -12 114 -59 277 -225 126 -129 187 -183 260 -230 89 -58
366 -200 420 -215 22 -6 20 -4 -10 19 -19 15 -38 33 -43 41 -4 8 -14 15 -21
15 -14 0 -30 27 -28 45 3 15 -104 102 -172 141 -16 9 -38 26 -50 38 -11 12
-48 42 -81 66 -75 55 -225 200 -272 263 -43 58 -39 78 16 73 44 -4 81 -29 181
-120 121 -109 246 -188 390 -244 30 -12 133 -42 229 -67 214 -55 242 -57 186
-14 -14 12 -22 26 -18 35 6 15 -41 94 -56 94 -5 0 -11 9 -14 21 -5 20 -5 20
13 4 10 -9 24 -14 30 -10 7 4 10 0 8 -10 -2 -10 2 -20 9 -22 19 -7 8 30 -12
41 -11 6 -29 20 -42 31 -12 11 -40 29 -60 40 -45 23 -135 74 -220 127 -34 21
-67 38 -73 38 -6 0 -13 7 -16 15 -4 8 -10 15 -15 15 -11 0 -90 79 -112 113
-10 15 -22 25 -26 22 -5 -2 -12 6 -15 20 -4 14 -14 25 -23 25 -9 0 -13 3 -9 7
11 11 -55 72 -72 66 -10 -4 -13 -2 -8 6 8 13 -10 41 -26 41 -6 0 -5 -7 2 -16
12 -13 10 -14 -14 -2 -16 7 -23 14 -17 16 22 7 10 22 -56 67 -38 25 -79 53
-93 62 -14 9 -62 53 -108 97 -70 69 -90 95 -129 176 -58 120 -65 152 -47 195
22 53 51 55 91 9 19 -22 43 -57 55 -78 42 -81 131 -208 162 -230 17 -13 96
-56 175 -97 171 -88 245 -151 356 -303 l74 -102 103 -44 c57 -24 129 -56 160
-72 32 -15 62 -28 67 -28 5 0 12 16 15 35 6 33 2 42 -71 133 -43 53 -112 151
-153 217 -62 101 -95 142 -214 261 -78 77 -184 175 -236 216 -88 69 -168 149
-600 591 -85 87 -177 180 -205 205 -138 129 -197 200 -255 307 -46 85 -133
285 -166 385 -40 118 -107 268 -124 280 -8 5 -36 50 -70 113 -19 35 -20 41 -6
62 l15 23 41 -19 c24 -12 55 -41 82 -77 23 -31 54 -70 70 -87 40 -41 136 -251
233 -508 46 -123 98 -200 200 -299 354 -343 408 -393 424 -390 19 3 48 -24 38
-35 -4 -3 -14 0 -23 8 -43 35 9 -30 72 -91 63 -61 65 -62 36 -21 -18 25 -32
51 -32 59 0 7 -5 10 -11 6 -9 -5 -10 1 -5 21 6 22 0 39 -29 81 -81 123 -142
368 -147 594 -3 125 0 143 27 162 23 17 25 17 55 -8 45 -38 59 -74 67 -161 3
-43 12 -95 20 -117 7 -21 13 -49 13 -61 0 -38 65 -218 107 -296 76 -142 137
-245 216 -364 83 -125 123 -175 141 -175 6 0 5 4 -2 9 -7 4 -14 18 -15 29 -1
12 -4 22 -7 22 -16 0 -42 98 -41 158 1 12 -4 22 -9 22 -6 0 -10 9 -10 20 0 11
-4 20 -9 20 -5 0 -11 18 -15 41 -4 23 -13 54 -21 70 -8 15 -15 37 -15 49 0 12
-4 18 -10 15 -5 -3 -10 3 -10 14 0 12 -5 21 -11 21 -6 0 -9 9 -6 20 3 11 2 20
-2 20 -4 0 -8 10 -8 22 -1 13 -7 24 -13 26 -5 2 -10 8 -10 13 0 6 4 8 8 5 5
-3 9 8 10 24 0 20 -4 30 -14 30 -10 0 -13 12 -12 42 1 24 -3 43 -10 46 -7 2
-12 13 -12 23 0 11 -4 17 -10 14 -6 -3 -10 1 -10 9 0 9 5 16 10 16 6 0 10 5
10 10 0 6 -7 10 -16 10 -10 0 -14 6 -11 14 3 8 -2 17 -11 21 -14 5 -14 8 -2
15 11 7 11 11 1 24 -8 9 -9 16 -4 16 22 0 12 65 -14 92 -17 18 -25 38 -26 67
-1 22 -5 41 -9 41 -5 0 -8 8 -8 18 0 10 -7 28 -16 40 -8 12 -11 22 -5 22 11 0
8 32 -12 105 -8 27 -16 44 -18 37 -2 -7 -5 38 -5 100 -1 120 -30 283 -64 362
-11 27 -41 63 -81 97 -77 67 -131 149 -154 234 -10 36 -21 65 -25 65 -5 0 -8
17 -8 38 0 47 -7 154 -17 260 -8 96 -1 112 54 112 63 0 95 -51 112 -178 15
-119 50 -273 69 -312 20 -39 83 -101 177 -173 34 -26 71 -61 83 -77 13 -18 26
-27 35 -23 17 6 21 53 4 53 -5 0 -8 -4 -4 -9 3 -5 0 -13 -6 -17 -9 -5 -10 1
-5 22 16 64 18 87 9 81 -15 -9 -28 5 -46 51 -13 31 -14 42 -4 42 8 1 6 5 -4
13 -9 7 -20 28 -24 47 -4 19 -13 44 -19 55 -21 34 -65 169 -72 224 -4 28 -11
54 -15 57 -5 3 -9 16 -9 29 0 13 -6 39 -14 57 -21 49 -92 293 -107 366 -19
100 -6 328 25 424 63 199 146 376 190 406 40 28 58 28 76 1 8 -12 21 -28 29
-36 11 -12 9 -25 -12 -86 -87 -248 -114 -440 -77 -553 21 -64 50 -87 50 -40 0
13 15 57 34 98 19 40 39 91 46 113 14 45 62 157 71 165 3 3 16 25 30 50 13 25
27 46 32 48 4 2 7 9 7 16 0 7 9 21 20 31 11 10 20 24 20 31 0 7 9 18 20 24 11
6 20 16 20 23 0 11 126 216 150 245 6 7 14 59 17 116 5 82 2 118 -13 177 -14
56 -18 111 -18 224 0 132 3 163 28 259 26 100 146 419 194 512 11 22 34 55 51
73 28 30 34 32 88 29 46 -2 58 -7 61 -21z m9062 -194 c17 -15 30 -31 30 -35 0
-4 10 -17 23 -30 18 -18 26 -43 35 -106 6 -45 22 -111 36 -145 23 -60 29 -158
12 -186 -4 -6 -2 -19 4 -30 6 -12 6 -22 1 -26 -5 -3 -11 3 -14 12 -2 10 -4 -8
-5 -40 -1 -62 -1 -63 75 -121 39 -31 123 -147 123 -171 0 -8 6 -20 13 -27 24
-26 65 -114 80 -173 19 -75 23 -152 17 -290 -2 -65 21 -120 82 -195 15 -19 28
-43 28 -53 0 -10 7 -20 16 -24 8 -3 13 -11 10 -18 -2 -7 6 -28 20 -46 13 -18
24 -41 24 -51 0 -9 9 -25 19 -35 30 -28 44 -159 36 -348 -4 -93 -3 -170 3
-185 9 -23 9 -23 16 11 12 65 82 105 136 76 19 -10 24 -19 22 -40 -2 -16 2
-35 9 -43 10 -12 9 -17 -4 -27 -9 -7 -19 -28 -21 -47 -12 -85 -30 -167 -42
-185 -6 -11 -18 -46 -25 -78 -10 -48 -15 -56 -31 -51 -10 3 -18 0 -18 -6 0 -6
5 -8 10 -5 6 3 10 -3 10 -14 0 -12 -4 -21 -10 -21 -5 0 -10 -9 -10 -21 0 -13
-4 -18 -12 -13 -7 5 -8 3 -3 -5 4 -7 0 -32 -10 -56 -9 -24 -15 -50 -14 -57 2
-7 -5 -28 -15 -47 -10 -18 -14 -31 -9 -28 7 4 7 -55 0 -200 -1 -24 1 -43 6
-43 4 0 6 1 5 3 -7 6 45 67 58 67 8 0 14 4 14 9 0 5 21 28 47 52 137 127 183
194 183 269 0 49 55 314 79 380 24 67 68 171 110 263 17 37 31 69 31 71 0 2
15 37 34 78 52 111 94 247 106 340 13 110 13 211 -2 243 -9 20 -9 37 1 72 10
41 10 48 -4 56 -15 8 -15 10 0 27 9 10 14 24 10 29 -10 17 16 13 37 -6 10 -9
18 -22 18 -28 0 -7 8 -23 18 -36 10 -13 22 -40 28 -59 6 -19 20 -61 30 -93 17
-53 17 -59 2 -85 -12 -21 -14 -32 -6 -46 8 -14 8 -33 0 -65 -6 -25 -17 -82
-23 -126 -7 -44 -18 -87 -25 -95 -6 -8 -12 -27 -12 -42 1 -32 -19 -61 -34 -52
-14 9 -28 -15 -28 -48 0 -18 -5 -28 -15 -28 -18 0 -20 -27 -3 -32 8 -3 8 -9 1
-22 -5 -10 -14 -16 -18 -14 -5 1 -13 -10 -18 -27 -5 -16 -18 -42 -29 -57 -10
-14 -21 -40 -24 -56 -4 -17 -16 -41 -27 -53 -17 -19 -22 -36 -22 -89 0 -36
-11 -111 -23 -168 -12 -57 -25 -136 -28 -175 -7 -89 -42 -285 -55 -309 -18
-33 -68 -78 -88 -78 -10 0 -32 -15 -47 -32 -33 -40 -67 -112 -54 -116 6 -2 10
-8 10 -13 0 -6 -4 -8 -8 -5 -4 2 -8 -11 -8 -30 0 -21 5 -34 13 -34 7 0 10 -7
6 -16 -5 -13 -7 -13 -14 -2 -5 7 -9 8 -9 3 0 -6 5 -16 11 -22 6 -6 8 -17 4
-23 -6 -9 -10 -9 -17 1 -7 10 -8 2 -4 -25 5 -38 -21 -146 -35 -146 -4 0 -6
-12 -4 -27 2 -16 0 -41 -5 -58 -5 -16 -19 -70 -31 -120 -12 -49 -24 -97 -27
-105 -3 -8 -6 -24 -8 -35 -4 -23 -16 -67 -38 -144 -9 -29 -14 -57 -11 -61 3
-5 1 -11 -4 -14 -5 -4 -12 -24 -16 -46 -4 -25 -11 -38 -17 -33 -7 3 -8 1 -4
-6 10 -16 -23 -153 -35 -145 -5 3 -9 -6 -9 -20 0 -14 -5 -28 -11 -32 -8 -5 -8
-8 0 -13 15 -10 2 -74 -14 -67 -7 2 -18 -11 -25 -30 -8 -19 -17 -34 -21 -34
-4 0 -6 -13 -4 -30 5 -36 -2 -39 -16 -7 -9 20 -9 19 -5 -7 4 -30 -11 -76 -24
-76 -12 0 -75 -134 -119 -250 -22 -58 -43 -114 -47 -125 -6 -14 0 -11 20 10
l28 30 -6 -32 c-3 -18 -2 -33 1 -33 15 0 97 99 162 195 207 305 294 503 352
798 15 81 33 156 38 166 6 10 23 21 38 24 27 5 121 -8 132 -18 11 -11 9 -40
-2 -47 -9 -6 -9 -8 0 -8 9 0 10 -7 3 -25 -5 -14 -12 -48 -15 -77 -4 -29 -8
-55 -11 -60 -3 -4 -9 -35 -14 -70 -27 -184 -78 -321 -173 -460 -24 -35 -46
-70 -50 -78 -4 -8 -14 -25 -23 -37 -33 -46 4 -21 52 34 129 149 172 194 398
418 277 275 286 288 374 545 74 214 106 300 129 345 19 37 108 164 123 175 3
3 19 23 35 45 16 22 39 51 51 65 32 38 90 184 111 280 15 73 18 141 19 475 0
215 1 395 2 401 1 5 11 20 22 32 28 30 88 30 125 0 l28 -22 -7 -360 c-3 -199
-8 -377 -10 -396 -14 -150 -21 -193 -43 -250 -14 -36 -29 -69 -33 -75 -4 -5
-10 -23 -14 -39 -4 -15 -20 -39 -37 -53 -22 -19 -29 -33 -28 -52 3 -26 -4 -41
-73 -144 -21 -32 -38 -62 -38 -67 0 -5 -17 -32 -37 -59 -42 -55 -57 -91 -134
-331 -29 -91 -59 -174 -66 -185 -7 -11 -13 -29 -13 -40 0 -63 -161 -259 -310
-380 -34 -27 -119 -110 -188 -183 -133 -141 -137 -145 -192 -212 -58 -71 -191
-202 -198 -195 -4 4 5 17 19 28 31 27 94 115 87 122 -3 3 -13 -6 -22 -21 -10
-14 -41 -48 -69 -75 -42 -40 -49 -51 -37 -58 8 -6 11 -13 7 -18 -5 -4 -12 -1
-17 7 -9 14 -24 3 -120 -90 -3 -3 -43 -39 -90 -80 -92 -81 -102 -92 -94 -100
3 -3 12 3 19 13 7 10 23 20 35 22 13 2 36 19 51 37 18 21 28 27 29 18 0 -8 -9
-21 -20 -28 -11 -7 -20 -19 -20 -28 0 -10 -6 -14 -15 -10 -8 3 -15 0 -15 -7 0
-14 -67 -87 -81 -87 -5 0 -29 -19 -54 -42 -24 -24 -55 -52 -69 -63 -14 -11
-25 -25 -26 -30 0 -6 -9 -17 -20 -25 -11 -8 -20 -20 -20 -27 0 -7 -4 -13 -8
-13 -4 0 -15 -12 -25 -27 -38 -61 -44 -67 -61 -50 -9 9 -16 21 -16 27 0 6 -12
-1 -26 -17 -18 -19 -23 -34 -19 -50 4 -19 1 -23 -16 -23 -12 0 -23 -8 -26 -20
-3 -11 -9 -20 -13 -20 -4 0 -19 -18 -34 -40 -14 -22 -24 -40 -21 -40 2 0 -8
-13 -23 -28 -68 -72 -202 -249 -202 -268 0 -6 -7 -17 -15 -24 -8 -7 -15 -17
-15 -24 0 -6 10 0 23 12 41 41 92 82 103 82 6 0 19 9 30 21 27 30 134 82 234
113 47 15 96 37 109 49 13 12 49 60 80 107 87 132 160 194 291 249 163 69 234
125 300 237 51 89 128 183 164 201 42 21 66 43 66 60 0 42 231 323 265 323 7
0 15 4 17 8 2 4 26 23 53 42 132 89 153 104 190 135 87 71 197 199 226 265 7
14 22 48 35 76 13 28 24 56 24 62 0 7 4 12 8 12 5 0 9 6 9 13 0 32 83 283 201
602 26 71 68 125 97 125 19 0 75 -28 76 -38 0 -4 3 -16 6 -27 9 -38 -2 -111
-20 -122 -6 -4 -8 4 -3 23 3 16 8 39 11 51 7 29 -12 39 -21 11 -4 -13 -7 -25
-6 -28 0 -3 -4 -10 -10 -17 -5 -7 -7 -17 -3 -23 3 -5 -1 -20 -9 -32 -9 -12
-16 -32 -16 -44 0 -12 -11 -46 -24 -76 -13 -29 -43 -110 -66 -178 -23 -69 -46
-130 -51 -136 -6 -7 -9 -16 -7 -20 5 -17 -36 -114 -48 -114 -6 0 -17 -21 -25
-47 -7 -27 -21 -57 -31 -67 -10 -11 -18 -28 -18 -38 0 -10 -7 -21 -15 -24 -14
-6 -29 -37 -30 -61 0 -7 -14 -25 -31 -40 -17 -15 -34 -37 -38 -49 -3 -11 -18
-27 -32 -35 -14 -7 -35 -27 -47 -44 -12 -16 -38 -43 -57 -60 -19 -16 -45 -40
-58 -53 -13 -13 -43 -35 -65 -50 -53 -34 -252 -188 -280 -217 -12 -12 -32 -36
-44 -53 -13 -18 -32 -45 -44 -61 -20 -27 -20 -30 -4 -61 16 -30 16 -34 1 -42
-9 -5 -16 -18 -16 -29 0 -11 -7 -31 -16 -45 -15 -23 -15 -24 0 -18 9 4 20 19
23 35 3 16 12 34 19 40 11 9 14 6 14 -15 0 -15 -7 -29 -15 -32 -8 -4 -15 -13
-15 -20 0 -22 -37 -90 -100 -185 -75 -110 -180 -201 -315 -273 -130 -69 -210
-129 -264 -200 -68 -90 -256 -270 -298 -285 -21 -8 -54 -21 -73 -29 -19 -9
-44 -15 -55 -13 -17 2 -17 0 -5 -8 9 -7 10 -11 3 -11 -6 0 -14 4 -18 10 -8 13
-35 1 -35 -16 0 -8 -9 -14 -21 -14 -11 0 -34 -14 -51 -31 -17 -16 -37 -28 -44
-25 -8 3 -14 0 -14 -7 0 -7 -17 -26 -37 -42 -76 -62 -108 -94 -100 -101 19
-20 375 63 542 126 55 21 125 49 155 63 30 13 62 27 70 30 51 21 120 72 189
140 44 42 87 77 96 77 22 0 18 -18 -7 -31 -24 -13 -92 -72 -117 -103 -9 -10
-24 -26 -33 -35 -17 -14 -25 -41 -13 -41 3 0 22 17 43 38 21 20 52 49 68 63
53 48 99 103 96 115 -1 7 3 14 11 16 7 2 39 32 71 68 32 36 73 81 90 100 18
19 52 49 77 67 24 18 56 42 70 53 14 12 58 28 100 36 41 9 107 31 147 50 93
43 122 45 122 5 0 -22 -15 -44 -63 -92 -35 -35 -88 -82 -117 -104 -84 -64
-194 -176 -226 -230 -16 -27 -37 -63 -47 -80 -10 -16 -20 -38 -23 -47 -3 -9
-16 -18 -28 -20 -16 -2 -22 -12 -26 -38 -4 -24 -10 -35 -22 -34 -10 1 -18 -9
-22 -27 -3 -16 -12 -29 -20 -29 -9 0 -12 -7 -9 -19 4 -15 -1 -20 -19 -23 -20
-3 -23 -8 -20 -40 3 -33 -2 -43 -42 -83 -26 -25 -50 -45 -55 -45 -5 0 -13 -9
-16 -20 -3 -11 -15 -20 -26 -20 -10 0 -19 -7 -19 -15 0 -8 -4 -15 -8 -15 -5 0
-22 -11 -38 -25 -24 -21 -27 -27 -14 -35 10 -6 16 -6 18 0 2 6 8 10 14 10 24
0 -16 -30 -41 -31 -31 -1 -63 -12 -62 -22 3 -28 -7 -38 -66 -67 -38 -18 -77
-35 -88 -39 -11 -4 -40 -17 -65 -29 -49 -23 -177 -62 -203 -62 -20 0 -141 -60
-145 -72 -2 -4 -10 -8 -19 -8 -8 0 -47 -26 -86 -58 -156 -127 -248 -177 -397
-217 -134 -36 -129 -33 -136 -74 -8 -46 -19 -66 -62 -119 -41 -50 -265 -233
-320 -261 -21 -11 -44 -26 -50 -34 -7 -8 -26 -14 -44 -15 -18 0 -37 -7 -43
-14 -5 -8 -36 -27 -67 -43 -32 -17 -58 -33 -58 -37 0 -5 -6 -8 -12 -8 -7 0
-78 -32 -158 -71 -80 -39 -183 -86 -230 -106 -47 -19 -95 -41 -107 -49 -12 -8
-29 -14 -36 -14 -8 0 -26 -9 -41 -21 -14 -11 -30 -18 -35 -15 -5 3 -12 -1 -15
-10 -4 -10 -12 -14 -22 -10 -12 5 -15 2 -10 -10 4 -10 -5 -26 -25 -45 -18 -17
-25 -29 -18 -30 36 -2 109 3 159 11 30 5 127 16 215 25 212 21 319 40 434 77
178 56 215 85 444 341 89 99 142 134 219 146 65 11 85 1 94 -44 5 -29 2 -38
-17 -54 -13 -11 -21 -23 -17 -27 5 -4 16 0 26 9 10 9 23 13 30 8 16 -10 -1
-27 -33 -33 -15 -3 -19 -10 -17 -30 1 -15 -2 -29 -8 -33 -5 -3 -10 -1 -10 4 0
22 -18 10 -24 -15 -4 -14 -34 -54 -68 -89 -33 -35 -69 -79 -80 -97 -11 -18
-34 -46 -51 -61 -18 -16 -62 -57 -98 -93 -61 -59 -181 -134 -215 -134 -8 0
-17 -6 -20 -14 -3 -8 -19 -14 -39 -14 -47 0 -75 -11 -75 -29 0 -12 -3 -13 -13
-5 -13 11 -65 -2 -134 -33 -17 -8 -44 -15 -60 -15 -16 0 -33 -3 -36 -7 -4 -4
-51 -8 -105 -9 -119 -4 -203 -13 -217 -23 -5 -5 -46 -9 -90 -10 -91 -2 -175
-14 -255 -37 -30 -8 -64 -18 -75 -21 -75 -20 -150 -45 -159 -52 -6 -4 -24 -11
-40 -15 -15 -4 -73 -29 -128 -56 -55 -28 -108 -50 -119 -50 -10 0 -19 -4 -19
-10 0 -5 -5 -10 -11 -10 -6 0 -27 -7 -47 -16 -21 -9 -46 -19 -57 -24 -11 -4
-36 -13 -55 -20 -19 -7 -51 -14 -70 -15 -19 -1 -46 -6 -60 -12 -79 -34 -112
-42 -136 -33 -19 8 -26 6 -31 -6 -4 -11 -13 -14 -30 -9 -14 3 -30 1 -37 -4 -7
-6 -21 -10 -31 -10 -54 -1 -169 -26 -190 -41 -5 -4 -39 -11 -75 -15 -36 -4
-85 -13 -110 -20 -87 -27 -186 -47 -245 -52 -33 -3 -64 -11 -70 -19 -12 -16
-108 -30 -127 -18 -12 8 42 24 84 25 16 0 34 39 17 39 -5 0 -9 -4 -9 -9 0 -5
-7 -12 -16 -15 -8 -3 -12 -2 -9 4 3 6 -4 10 -17 11 -14 0 -17 3 -8 5 8 3 35
15 60 27 41 20 43 22 20 25 -14 2 -56 -1 -95 -7 -98 -16 -306 -42 -392 -50
-76 -7 -95 -17 -98 -50 -1 -21 -48 -71 -66 -71 -8 0 30 59 51 80 3 3 17 23 31
45 15 22 78 101 140 176 63 74 130 157 149 183 19 26 58 75 85 108 28 33 65
78 83 101 18 23 41 51 50 62 10 11 44 56 76 100 33 44 63 84 67 89 8 9 43 15
207 36 177 23 494 117 727 215 61 26 143 60 183 77 115 47 389 186 443 224 27
19 51 34 54 34 6 0 360 238 413 277 274 205 655 591 903 915 77 100 261 366
330 476 56 90 161 296 221 431 27 64 57 131 65 149 8 18 25 61 37 95 23 61 99
253 116 292 5 11 14 38 20 60 6 22 15 49 20 60 4 11 18 54 30 95 12 41 24 82
27 90 3 8 7 29 10 45 2 17 13 62 23 100 55 203 99 486 121 763 16 222 7 731
-19 942 -11 91 -19 174 -19 185 0 11 -5 40 -11 65 -6 25 -18 88 -26 140 -9 52
-21 115 -28 139 -10 35 -10 45 0 48 6 3 12 9 12 14 0 6 -4 8 -9 4 -16 -9 -44
62 -36 92 l6 27 19 -39 18 -40 -5 40 c-4 22 -10 42 -15 43 -11 5 -10 22 2 22
14 0 33 -79 25 -107 -4 -16 -2 -22 5 -18 5 3 10 2 10 -4 0 -5 6 -16 13 -23 36
-38 52 -75 48 -115 -2 -29 3 -50 16 -67 22 -31 33 -33 33 -6 0 14 -7 20 -22
20 -13 0 -18 4 -12 8 6 4 13 15 17 25 8 21 23 22 31 1 4 -12 2 -15 -9 -10 -8
3 -15 1 -15 -5 0 -12 28 -24 37 -15 8 8 -16 114 -28 121 -5 4 -13 -4 -18 -17
-6 -13 -10 -17 -10 -10 -1 7 4 21 11 31 9 16 5 43 -26 148 -40 133 -74 238
-125 383 -18 51 -27 88 -21 94 9 9 23 -11 122 -189 34 -60 66 -111 70 -113 4
-2 8 -7 8 -12 0 -4 7 -25 16 -46 14 -33 17 -36 26 -20 25 44 -12 173 -106 369
-91 190 -106 240 -110 372 -6 157 -15 212 -47 277 -16 32 -29 67 -29 78 0 28
-29 82 -39 75 -5 -2 -14 2 -21 10 -10 12 -9 15 4 15 15 0 15 2 -1 28 -9 15
-18 29 -20 31 -14 19 -83 -99 -83 -141 0 -10 -10 -22 -24 -28 -18 -7 -22 -14
-19 -34 4 -18 1 -26 -8 -26 -8 0 -24 -3 -35 -6 -18 -5 -25 2 -44 40 -12 25
-26 46 -31 46 -5 0 -9 22 -9 49 0 34 17 94 56 202 54 148 83 274 84 372 0 67
-30 176 -56 202 -25 25 -44 65 -44 91 0 8 11 25 25 38 33 31 86 26 125 -11z
m-10067 -14 c42 -19 48 -47 26 -125 -11 -38 -21 -96 -24 -129 -11 -122 -17
-171 -25 -200 -5 -16 -14 -49 -20 -73 -6 -23 -15 -40 -21 -37 -5 4 -8 -6 -7
-23 2 -28 -27 -77 -73 -123 -31 -31 -176 -119 -195 -119 -10 0 -28 7 -38 15
-10 8 -22 12 -27 9 -11 -7 8 55 23 74 7 9 41 50 75 91 36 42 71 96 82 126 25
66 51 212 51 283 0 64 25 156 52 194 10 15 34 32 51 37 43 12 43 12 70 0z
m10474 -53 c42 -36 64 -120 47 -183 -5 -17 -12 -21 -35 -18 -16 2 -29 0 -29
-5 0 -19 -45 -9 -61 13 -18 25 -49 112 -49 138 0 28 49 79 75 79 13 0 37 -11
52 -24z m-2851 -40 c82 -54 391 -292 489 -376 220 -188 470 -456 584 -625 100
-148 251 -412 251 -439 0 -22 -25 4 -61 64 -38 64 -59 91 -59 75 0 -3 7 -17
16 -31 9 -13 13 -28 9 -32 -4 -4 -15 4 -24 18 -9 13 -50 63 -91 110 -42 47
-107 123 -145 170 -301 370 -474 534 -838 793 -59 42 -112 77 -118 77 -5 0
-21 -7 -35 -16 -17 -12 -38 -15 -72 -11 -39 4 -53 12 -80 44 -30 34 -33 43
-29 86 5 52 24 79 77 108 41 21 79 17 126 -15z m-4297 -11 c36 -18 53 -63 41
-106 -14 -46 -37 -68 -108 -100 -207 -94 -538 -374 -860 -729 -101 -111 -278
-328 -317 -389 -28 -44 -65 -84 -72 -78 -6 6 15 47 34 65 14 15 17 32 6 32 -5
0 -28 -28 -52 -62 -25 -34 -46 -57 -48 -51 -5 15 114 240 180 338 55 82 126
179 168 230 268 321 388 434 772 724 32 24 69 59 84 78 47 61 112 79 172 48z
m7162 -258 c-8 -8 -11 -4 -11 14 0 33 14 47 18 19 2 -12 -1 -27 -7 -33z m630
-72 c18 -35 39 -66 47 -67 22 -5 56 -118 36 -118 -13 0 -54 52 -54 68 -1 15
-2 15 -11 -2 -9 -14 -8 -20 1 -26 16 -10 5 -43 -13 -37 -6 2 -11 15 -9 27 1
13 -1 21 -4 17 -8 -7 -73 119 -74 141 0 14 31 61 41 62 4 0 21 -29 40 -65z
m106 -157 c-3 -8 -6 -5 -6 6 -1 11 2 17 5 13 3 -3 4 -12 1 -19z m681 -322 c39
-20 66 -55 85 -106 30 -83 69 -302 69 -385 0 -83 -22 -199 -41 -218 -6 -6 -11
-42 -11 -79 0 -54 -4 -72 -19 -87 -12 -12 -17 -27 -14 -40 3 -12 -3 -38 -13
-58 -10 -21 -17 -43 -16 -50 1 -6 -2 -14 -8 -18 -5 -3 -10 -15 -10 -26 0 -10
-9 -28 -20 -39 -23 -23 -25 -30 -7 -30 8 0 12 -23 13 -78 0 -58 9 -108 37
-203 56 -192 48 -264 -26 -224 -27 14 -36 29 -57 94 -13 42 -28 81 -32 87 -5
6 -6 18 -3 26 4 9 0 18 -9 21 -11 4 -15 22 -15 66 0 32 -4 69 -11 80 -6 12 -9
25 -6 29 5 9 17 90 21 138 1 16 5 36 10 44 4 7 10 33 12 58 2 25 8 50 13 57 5
6 12 35 16 65 4 30 14 65 22 78 8 13 12 34 9 50 -7 34 11 122 25 122 7 0 8 53
4 161 -5 132 -9 167 -25 197 -40 75 -81 173 -90 212 -8 38 -7 41 18 55 33 18
46 18 79 1z m-1178 -53 c0 -20 -16 -8 -23 17 -4 17 -3 19 9 9 8 -6 14 -18 14
-26z m-10702 -19 c12 -8 22 -23 22 -33 0 -9 -25 -67 -55 -128 -30 -61 -59
-122 -65 -135 -5 -13 -14 -30 -18 -38 -23 -41 -43 -78 -57 -105 -8 -16 -23
-41 -35 -55 -19 -24 -20 -24 -20 -4 0 12 -6 26 -13 32 -11 9 -10 28 1 104 22
157 32 196 69 269 49 99 113 134 171 93z m1937 -674 c21 -13 40 -38 54 -69 24
-56 26 -77 10 -118 -40 -107 -190 -126 -259 -32 -41 57 -46 90 -21 143 43 87
141 122 216 76z m7102 0 c64 -39 86 -105 53 -158 -52 -84 -197 -78 -242 10
-55 106 82 213 189 148z m1605 5 c0 -5 -5 -11 -11 -13 -6 -2 -11 4 -11 13 0 9
5 15 11 13 6 -2 11 -8 11 -13z m-422 -376 c0 -10 -3 -19 -7 -19 -5 0 -8 11 -8
24 0 13 3 22 8 19 4 -2 7 -13 7 -24z m7 -91 c-3 -8 -6 -5 -6 6 -1 11 2 17 5
13 3 -3 4 -12 1 -19z m-937 -196 c53 -53 77 -136 62 -210 -16 -75 -29 -85 -91
-71 -55 11 -69 29 -23 29 43 0 52 12 53 67 1 46 -2 55 -37 92 -42 44 -54 50
-54 26 0 -9 -6 -12 -15 -9 -8 4 -12 11 -9 18 3 6 -1 3 -10 -8 -10 -12 -14 -38
-13 -82 1 -46 -1 -59 -7 -44 -5 11 -13 20 -18 20 -14 0 -9 90 8 126 12 26 24
35 51 40 23 4 37 13 40 25 8 28 21 24 63 -19z m-7653 6 c42 -30 42 -52 -3 -94
-32 -28 -38 -43 -49 -104 -7 -38 -9 -70 -4 -70 11 0 39 -30 39 -41 0 -6 -10
-3 -22 5 -20 14 -24 14 -39 0 -17 -15 -19 -14 -38 17 -35 57 -26 126 31 262
23 53 37 57 85 25z m8750 -55 c-3 -10 -5 -4 -5 12 0 17 2 24 5 18 2 -7 2 -21
0 -30z m-8677 -51 c0 -38 -7 -55 -19 -47 -10 5 0 85 10 85 5 0 9 -17 9 -38z
m9870 -34 c31 -33 34 -57 27 -225 -6 -143 -12 -181 -53 -338 -8 -33 -20 -82
-26 -110 -11 -55 -75 -194 -111 -239 -12 -15 -35 -44 -52 -62 -27 -31 -32 -32
-49 -19 -11 9 -22 34 -26 61 -7 43 -4 53 26 103 19 31 34 60 34 64 0 4 15 42
34 85 44 101 66 250 69 483 2 158 4 179 21 198 26 29 79 28 106 -1z m-12209
-38 c17 -23 18 -36 10 -145 -18 -244 -3 -389 53 -510 23 -49 121 -186 138
-193 14 -6 9 -28 -12 -47 -19 -17 -21 -17 -42 1 -13 10 -27 25 -32 33 -4 7
-35 38 -67 70 -46 43 -61 65 -65 93 -4 21 -10 35 -15 33 -4 -3 -11 11 -14 32
-4 21 -13 58 -20 83 -16 52 -24 101 -40 235 -3 28 -11 95 -19 150 -14 110 -9
135 32 173 31 29 69 26 93 -8z m-434 -277 c-11 -10 -26 8 -20 23 5 15 7 14 15
-1 6 -9 7 -19 5 -22z m13 -47 c0 -3 -4 -8 -10 -11 -5 -3 -10 -1 -10 4 0 6 5
11 10 11 6 0 10 -2 10 -4z m707 -98 c-3 -8 -6 -5 -6 6 -1 11 2 17 5 13 3 -3 4
-12 1 -19z m-67 -518 c0 -5 -7 -10 -15 -10 -8 0 -15 5 -15 10 0 6 7 10 15 10
8 0 15 -4 15 -10z m-178 -113 c46 -28 72 -60 104 -132 23 -50 25 -59 13 -87
-7 -18 -12 -45 -11 -62 2 -28 2 -29 -16 -13 -13 12 -28 15 -50 11 -30 -6 -31
-5 -43 40 -6 25 -16 46 -21 46 -5 0 -6 4 -3 10 3 5 -12 34 -35 64 -22 30 -40
59 -40 64 0 5 -9 17 -20 27 -19 17 -19 18 3 36 30 25 74 24 119 -4z m5451
-441 c4 -10 0 -12 -14 -9 -10 3 -16 9 -13 14 8 13 21 11 27 -5z m60 7 c-7 -2
-19 -2 -25 0 -7 3 -2 5 12 5 14 0 19 -2 13 -5z m-728 -343 c-3 -5 -11 -10 -16
-10 -6 0 -7 5 -4 10 3 6 11 10 16 10 6 0 7 -4 4 -10z m1622 -165 c0 -8 -4 -12
-9 -9 -5 3 -6 10 -3 15 9 13 12 11 12 -6z m-2167 -25 c-8 -5 -22 -10 -30 -10
-13 0 -13 1 0 10 8 5 22 10 30 10 13 0 13 -1 0 -10z m-67 -27 c-7 -2 -19 -2
-25 0 -7 3 -2 5 12 5 14 0 19 -2 13 -5z m-313 -112 c-26 -15 -66 -24 -55 -13
6 5 19 12 30 15 32 8 41 7 25 -2z m2650 -1 c0 -5 -4 -10 -10 -10 -5 0 -10 5
-10 10 0 6 5 10 10 10 6 0 10 -4 10 -10z m35 -25 c-16 -13 -35 -24 -42 -25
-21 0 31 48 52 49 17 1 15 -3 -10 -24z m65 15 c0 -5 -4 -10 -10 -10 -5 0 -10
5 -10 10 0 6 5 10 10 10 6 0 10 -4 10 -10z m57 -77 c-3 -10 -5 -2 -5 17 0 19
2 27 5 18 2 -10 2 -26 0 -35z m-270 -25 c-3 -8 -6 -5 -6 6 -1 11 2 17 5 13 3
-3 4 -12 1 -19z m-20 -10 c-3 -8 -6 -5 -6 6 -1 11 2 17 5 13 3 -3 4 -12 1 -19z
m-3137 -136 c13 -29 27 -52 32 -52 4 0 8 -6 8 -13 0 -12 72 -71 110 -90 8 -4
1 -5 -17 -2 -101 15 -212 172 -178 252 6 15 9 13 15 -13 4 -17 17 -54 30 -82z
m-3634 -34 c23 -24 67 -92 99 -153 32 -60 79 -144 105 -185 52 -83 111 -192
106 -197 -6 -6 -36 9 -36 18 0 5 -7 9 -15 9 -14 0 -14 -2 0 -23 16 -25 12 -37
-12 -37 -14 0 -73 58 -73 71 0 3 -11 11 -23 16 -13 6 -31 27 -40 46 -9 19 -26
37 -37 40 -11 3 -20 13 -20 22 0 10 -14 41 -32 69 -17 28 -46 78 -64 111 -17
33 -48 87 -68 119 -40 66 -45 99 -18 116 33 20 84 3 128 -42z m12945 12 c5 0
14 -12 19 -26 9 -22 4 -35 -27 -87 -21 -34 -48 -75 -61 -91 -12 -16 -32 -47
-44 -70 -11 -22 -42 -68 -68 -102 -26 -33 -51 -70 -54 -82 -4 -12 -14 -22 -22
-22 -8 0 -14 -6 -14 -14 0 -8 -20 -26 -44 -40 -25 -14 -51 -32 -58 -39 -27
-25 -107 -87 -112 -87 -4 0 0 12 8 28 8 15 30 67 49 115 21 50 70 138 115 205
43 64 91 138 105 163 52 89 146 167 185 154 8 -3 18 -5 23 -5z m-1106 -160
c-5 -16 -3 -19 12 -14 14 5 15 4 4 -4 -14 -10 -41 -6 -41 7 0 7 21 31 28 31 2
0 1 -9 -3 -20z m-4286 -16 c6 4 11 3 11 -2 0 -6 -7 -12 -15 -16 -8 -3 -15 -4
-15 -2 0 3 -3 13 -6 23 -4 14 -4 15 4 4 5 -7 15 -10 21 -7z m-54 -45 c-6 -30
-13 -35 -28 -20 -9 10 -9 12 3 9 8 -2 15 3 16 10 2 19 4 22 8 22 3 0 3 -10 1
-21z m-7208 -371 c-3 -8 -6 -5 -6 6 -1 11 2 17 5 13 3 -3 4 -12 1 -19z m6728
-209 c-26 -44 -85 -219 -85 -250 0 -16 -45 -59 -147 -138 -56 -44 -51 -34
-206 -366 -41 -88 -85 -187 -98 -220 -44 -115 -50 -100 -14 37 13 51 38 158
55 238 17 80 45 191 62 248 l31 102 127 123 c250 242 291 280 296 275 2 -3 -7
-25 -21 -49z m4220 31 c-1 -11 -11 -29 -23 -40 -25 -23 -29 -15 -7 14 15 20
11 41 -6 31 -5 -4 -9 -1 -9 4 0 6 10 11 23 11 17 0 23 -5 22 -20z m-10100
-119 c3 -5 1 -12 -5 -16 -5 -3 -10 1 -10 9 0 18 6 21 15 7z m-375 -691 c0 -5
-7 -10 -15 -10 -8 0 -15 5 -15 10 0 6 7 10 15 10 8 0 15 -4 15 -10z m6251 -37
c-6 -21 -36 -142 -65 -269 -59 -253 -133 -507 -173 -596 -22 -49 -35 -64 -87
-98 -67 -43 -66 -43 -338 -237 -103 -73 -236 -165 -295 -204 -59 -39 -120 -82
-135 -97 -47 -44 -32 -5 44 117 80 129 115 166 388 416 202 185 237 220 244
244 3 9 24 81 47 161 50 178 91 265 160 350 29 36 89 109 132 163 43 54 81 96
84 94 2 -3 0 -22 -6 -44z m-6551 -192 c0 -6 -4 -13 -10 -16 -5 -3 -10 1 -10 9
0 9 5 16 10 16 6 0 10 -4 10 -9z m45 -41 c3 -5 -1 -10 -9 -10 -9 0 -16 5 -16
10 0 6 4 10 9 10 6 0 13 -4 16 -10z m5295 -75 c0 -3 -11 -28 -25 -57 -14 -28
-25 -61 -25 -72 0 -10 -6 -27 -14 -35 -7 -9 -21 -41 -31 -71 -26 -80 -72 -169
-114 -220 -56 -67 -66 -89 -130 -280 -32 -96 -84 -243 -114 -325 -102 -278
-165 -459 -226 -660 -34 -110 -66 -211 -71 -225 -5 -14 -58 -176 -119 -360
-61 -184 -120 -353 -131 -375 -11 -22 -18 -29 -14 -16 15 55 46 157 94 311 54
170 138 440 170 545 100 329 135 452 226 795 58 217 115 435 125 484 21 96 24
100 146 256 46 58 118 151 161 207 68 90 92 116 92 98z m-4225 -133 c-3 -3
-11 0 -18 7 -9 10 -8 11 6 5 10 -3 15 -9 12 -12z m10453 -428 c26 -5 31 -11
34 -42 3 -22 -3 -50 -14 -74 -19 -38 -33 -48 -118 -78 -71 -25 -96 -37 -145
-68 -27 -17 -53 -35 -57 -39 -4 -4 -31 -33 -59 -63 -28 -30 -61 -71 -74 -91
-28 -43 -140 -155 -178 -177 -15 -9 -30 -24 -33 -34 -3 -12 -20 -20 -45 -24
-22 -4 -45 -14 -52 -24 -7 -10 -48 -27 -97 -39 -47 -12 -103 -30 -125 -40 -22
-11 -61 -27 -87 -36 -45 -17 -148 -100 -148 -120 0 -15 -37 -45 -55 -45 -9 0
-20 -11 -25 -25 -5 -14 -14 -25 -20 -25 -13 0 -74 -60 -89 -89 -7 -11 -19 -21
-29 -21 -9 0 -26 -7 -36 -15 -21 -16 -156 -20 -156 -4 0 5 4 9 9 9 18 0 114
105 194 213 153 206 213 249 452 326 236 76 272 102 382 263 74 109 128 167
204 219 61 41 159 89 182 89 7 0 30 10 52 21 35 19 76 35 96 38 4 1 20 -2 37
-5z m-10777 -241 c25 -26 77 -96 116 -154 97 -144 140 -180 303 -253 106 -48
196 -111 246 -173 37 -45 64 -87 64 -98 0 -9 -91 31 -165 73 -11 6 -87 44
-170 84 -132 64 -159 81 -225 145 -41 40 -78 73 -81 73 -7 0 -89 106 -89 115
0 14 -45 65 -57 65 -7 0 -13 5 -13 10 0 6 5 10 10 10 19 0 10 25 -12 35 -13 6
-22 17 -20 24 1 7 -2 19 -9 27 -22 26 1 35 37 14 43 -27 37 -5 -10 34 -20 16
-32 34 -29 42 7 18 42 -6 104 -73z m7770 -1220 c6 -16 8 -46 4 -68 l-6 -40
-112 -40 c-190 -68 -254 -84 -472 -119 -175 -28 -301 -54 -325 -67 -8 -4 -49
-24 -90 -44 -100 -48 -169 -95 -176 -120 -6 -23 -44 -29 -44 -8 0 7 -9 13 -20
13 -44 0 -10 69 73 148 104 99 216 143 443 177 297 43 414 69 489 108 70 36
189 86 208 86 10 1 22 -10 28 -26z m-1841 -193 c-20 -13 -43 -13 -35 0 3 6 16
10 28 10 18 0 19 -2 7 -10z m2280 -5 c32 -17 47 -62 31 -93 -17 -32 -121 -122
-149 -129 -15 -3 -79 -36 -143 -73 -127 -73 -242 -130 -304 -150 -22 -7 -44
-15 -50 -19 -5 -3 -55 -19 -110 -36 -78 -24 -125 -47 -215 -104 -63 -41 -131
-87 -151 -103 -20 -15 -40 -28 -45 -28 -4 0 -15 -7 -25 -16 -10 -9 -46 -24
-81 -34 -35 -10 -121 -39 -193 -64 -167 -57 -297 -83 -515 -102 -96 -8 -222
-21 -280 -29 -58 -7 -108 -11 -112 -9 -3 2 -18 0 -33 -6 -15 -6 -98 -11 -186
-12 -87 -2 -159 -5 -159 -9 0 -14 -65 -7 -77 9 -12 16 -14 15 -32 -8 -15 -19
-22 -22 -33 -12 -8 6 -18 9 -22 5 -3 -4 -12 2 -20 12 -12 17 -16 17 -31 5 -20
-16 -81 -24 -89 -11 -3 5 -15 7 -26 4 -11 -3 -27 0 -34 7 -11 8 -20 9 -35 0
-14 -7 -21 -7 -21 0 0 5 -22 10 -49 10 -35 0 -51 4 -55 15 -4 11 -13 14 -30 9
-13 -3 -27 -1 -31 6 -4 7 -19 9 -38 4 -18 -3 -29 -3 -25 1 14 14 -14 35 -45
35 -19 0 -27 4 -22 9 6 5 107 17 225 25 118 9 321 27 450 41 370 39 469 47
555 41 45 -2 71 -1 60 3 -52 21 -142 35 -415 62 -162 16 -322 36 -355 45 -33
8 -94 23 -135 33 -119 29 -200 53 -200 60 0 4 31 41 68 82 37 41 108 121 157
179 48 58 92 109 97 114 4 5 47 9 95 7 159 -4 564 19 663 39 150 29 186 31
228 14 40 -16 86 -84 57 -84 -8 0 -19 -9 -24 -19 -18 -33 -101 -65 -263 -101
-54 -12 -98 -25 -98 -30 0 -4 -15 -11 -34 -14 -22 -4 -46 -20 -67 -43 -37 -43
-45 -35 91 -76 47 -14 117 -37 157 -51 91 -33 209 -50 286 -41 133 16 248 61
431 170 148 88 178 100 270 110 59 7 66 6 60 -9 -3 -9 -11 -16 -16 -16 -6 0
-8 -9 -5 -20 3 -13 0 -20 -9 -20 -8 0 -14 -6 -14 -13 0 -7 -18 -26 -39 -43
-41 -30 -67 -69 -52 -79 5 -2 14 2 21 10 7 8 18 15 26 15 7 0 19 6 26 13 7 7
34 30 61 51 26 21 47 43 47 48 0 15 29 40 39 33 6 -3 13 1 18 9 4 7 35 19 68
25 330 64 515 143 738 316 65 50 112 58 167 30z m-6668 -15 c67 -14 126 -34
181 -62 111 -56 228 -129 267 -167 18 -17 56 -46 84 -65 53 -35 120 -109 109
-120 -10 -10 -51 -7 -58 4 -3 6 -17 10 -31 10 -28 0 -124 40 -189 78 -16 10
-50 24 -75 31 -68 20 -148 61 -201 103 -27 21 -55 38 -64 38 -8 0 -15 6 -15
13 0 6 -14 18 -31 26 -45 20 -116 93 -112 114 6 22 13 21 135 -3z m753 -146
c50 -13 155 -40 235 -60 80 -20 186 -49 235 -64 l90 -26 -1 -35 c-1 -19 -8
-51 -17 -71 l-15 -37 -69 4 c-120 7 -426 93 -550 155 -91 45 -123 75 -123 116
0 60 42 63 215 18z m4505 -48 c0 -6 -89 -66 -98 -66 -4 0 -13 -9 -20 -20 -12
-20 -42 -28 -42 -11 0 9 48 49 100 83 23 16 60 24 60 14z m-270 -112 c0 -3 -7
-12 -15 -20 -12 -13 -15 -13 -15 -1 0 7 3 17 7 20 8 8 23 9 23 1z"/>
<path d="M11870 16833 c0 -5 5 -15 10 -23 8 -12 10 -11 10 8 0 12 -4 22 -10
22 -5 0 -10 -3 -10 -7z"/>
<path d="M10420 9991 c0 -6 5 -13 10 -16 6 -3 10 1 10 9 0 9 -4 16 -10 16 -5
0 -10 -4 -10 -9z"/>
<path d="M10451 9944 c0 -11 3 -14 6 -6 3 7 2 16 -1 19 -3 4 -6 -2 -5 -13z"/>
<path d="M10967 9290 c-3 -11 -1 -23 4 -26 5 -3 9 6 9 20 0 31 -6 34 -13 6z"/>
<path d="M10961 9224 c0 -11 3 -14 6 -6 3 7 2 16 -1 19 -3 4 -6 -2 -5 -13z"/>
<path d="M11447 8709 c7 -7 15 -10 18 -7 3 3 -2 9 -12 12 -14 6 -15 5 -6 -5z"/>
<path d="M8035 14830 c-3 -5 1 -10 9 -10 9 0 16 5 16 10 0 6 -4 10 -9 10 -6 0
-13 -4 -16 -10z"/>
<path d="M7970 14803 c-8 -4 -21 -12 -28 -20 -11 -11 -11 -13 1 -13 8 0 22 9
32 20 19 21 19 22 -5 13z"/>
<path d="M7880 14755 c-16 -9 -19 -14 -9 -15 8 0 24 7 35 15 24 18 7 19 -26 0z"/>
<path d="M7825 14730 c-3 -5 1 -10 10 -10 9 0 13 5 10 10 -3 6 -8 10 -10 10
-2 0 -7 -4 -10 -10z"/>
<path d="M7780 14713 c0 -5 -20 -16 -45 -26 -25 -11 -43 -23 -40 -28 7 -10 55
10 55 23 0 4 3 7 8 6 4 -1 17 1 30 6 25 8 30 26 7 26 -8 0 -15 -3 -15 -7z"/>
<path d="M7666 14652 c-3 -5 1 -9 9 -9 8 0 12 4 9 9 -3 4 -7 8 -9 8 -2 0 -6
-4 -9 -8z"/>
<path d="M7620 14624 c0 -17 22 -14 28 4 2 7 -3 12 -12 12 -9 0 -16 -7 -16
-16z"/>
<path d="M7760 14619 c0 -5 5 -7 10 -4 6 3 10 8 10 11 0 2 -4 4 -10 4 -5 0
-10 -5 -10 -11z"/>
<path d="M7566 14595 c-16 -12 -17 -15 -4 -15 8 0 21 7 28 15 16 19 1 19 -24
0z"/>
<path d="M13316 15107 c3 -10 9 -15 12 -12 3 3 0 11 -7 18 -10 9 -11 8 -5 -6z"/>
<path d="M3745 11190 c3 -5 8 -10 11 -10 2 0 4 5 4 10 0 6 -5 10 -11 10 -5 0
-7 -4 -4 -10z"/>
<path d="M4965 10741 c-3 -5 -1 -12 5 -16 5 -3 10 1 10 9 0 18 -6 21 -15 7z"/>
<path d="M4974 10559 c-3 -6 -1 -16 5 -22 8 -8 11 -5 11 11 0 24 -5 28 -16 11z"/>
<path d="M5590 6901 c0 -6 4 -11 8 -11 5 0 65 -42 135 -94 70 -52 141 -99 159
-104 18 -6 80 -16 138 -22 229 -25 286 -45 381 -129 58 -50 85 -61 157 -61
l57 0 -80 51 c-85 55 -123 84 -209 165 -30 28 -81 64 -113 80 -32 15 -69 36
-83 45 -33 22 -188 59 -248 59 -26 0 -76 5 -112 10 -124 19 -190 23 -190 11z"/>
<path d="M6660 6219 c0 -6 -8 -8 -17 -5 -15 5 -14 3 2 -10 19 -16 19 -16 -7
-10 -16 4 -28 5 -28 3 0 -2 21 -17 48 -34 158 -101 400 -223 442 -223 16 0 30
-4 30 -10 0 -5 -8 -7 -17 -4 -19 5 2 -6 85 -44 70 -32 89 -22 28 14 -27 16
-57 36 -67 45 -35 34 -161 110 -256 156 -54 26 -101 51 -104 56 -3 4 -19 9
-35 11 -39 6 -64 16 -64 27 0 5 -7 9 -16 9 -10 0 -14 6 -10 15 3 8 1 15 -4 15
-6 0 -10 -5 -10 -11z"/>
<path d="M6160 5660 c0 -5 5 -10 10 -10 6 0 10 5 10 10 0 6 -4 10 -10 10 -5 0
-10 -4 -10 -10z"/>
<path d="M6240 5569 c12 -16 24 -28 27 -25 6 6 -29 55 -40 56 -5 0 1 -14 13
-31z"/>
<path d="M15302 11205 c0 -16 2 -22 5 -12 2 9 2 23 0 30 -3 6 -5 -1 -5 -18z"/>
<path d="M15316 11115 c4 -8 7 -15 9 -15 2 0 5 7 9 15 3 9 0 15 -9 15 -9 0
-12 -6 -9 -15z"/>
<path d="M15342 11080 c0 -14 2 -19 5 -12 2 6 2 18 0 25 -3 6 -5 1 -5 -13z"/>
<path d="M15531 10944 c0 -11 3 -14 6 -6 3 7 2 16 -1 19 -3 4 -6 -2 -5 -13z"/>
<path d="M15480 10669 c0 -5 5 -7 10 -4 6 3 10 8 10 11 0 2 -4 4 -10 4 -5 0
-10 -5 -10 -11z"/>
<path d="M15506 10480 c-15 -38 -23 -110 -10 -98 7 8 35 130 30 135 -2 2 -11
-14 -20 -37z"/>
<path d="M16996 9664 c-9 -22 -8 -24 9 -18 8 4 15 12 15 20 0 19 -16 18 -24
-2z"/>
<path d="M15347 8433 c-4 -3 -7 -11 -7 -17 0 -6 5 -5 12 2 6 6 9 14 7 17 -3 3
-9 2 -12 -2z"/>
<path d="M15280 8375 c-26 -27 -30 -35 -16 -35 9 0 15 4 12 9 -3 5 7 15 22 22
15 8 28 20 30 27 4 20 -11 13 -48 -23z"/>
<path d="M15116 8175 c-3 -8 -1 -15 4 -15 6 0 10 7 10 15 0 8 -2 15 -4 15 -2
0 -6 -7 -10 -15z"/>
<path d="M15580 7510 c-11 -7 -12 -12 -3 -21 13 -13 33 -4 33 17 0 16 -9 18
-30 4z"/>
<path d="M15528 7483 c-1 -5 -22 -21 -44 -36 -49 -33 -90 -75 -82 -83 8 -7 50
17 66 38 7 9 19 15 27 12 8 -3 21 5 30 20 10 14 24 26 31 26 19 0 18 16 -2 24
-20 8 -22 8 -26 -1z"/>
<path d="M14835 6923 c-61 -18 -125 -28 -280 -43 -66 -6 -137 -16 -159 -21
-39 -11 -135 -68 -136 -81 0 -12 -74 -77 -87 -78 -7 0 -13 -4 -13 -10 0 -5 -9
-10 -20 -10 -10 0 -23 -6 -27 -13 -4 -7 -28 -27 -53 -45 -25 -17 -70 -54 -100
-82 l-55 -51 60 7 c74 8 86 14 156 81 60 57 96 73 169 73 100 1 258 29 310 55
44 23 197 134 289 212 31 26 18 28 -54 6z"/>
<path d="M13765 6160 c-3 -6 1 -7 9 -4 18 7 21 14 7 14 -6 0 -13 -4 -16 -10z"/>
<path d="M13710 6110 c-9 -6 -10 -10 -3 -10 6 0 15 5 18 10 8 12 4 12 -15 0z"/>
<path d="M13588 6049 c-32 -16 -58 -33 -58 -38 0 -5 29 7 65 26 60 31 77 44
58 42 -5 0 -34 -14 -65 -30z"/>
<path d="M13392 5999 c-19 -6 -30 -14 -26 -20 4 -7 9 -7 13 -2 3 6 24 15 46
21 22 5 31 10 20 10 -11 0 -35 -4 -53 -9z"/>
<path d="M13490 6000 c-8 -5 -26 -10 -40 -11 -23 0 -23 -1 -5 -8 18 -8 75 11
75 24 0 8 -14 5 -30 -5z"/>
<path d="M13368 5943 c6 -2 18 -2 25 0 6 3 1 5 -13 5 -14 0 -19 -2 -12 -5z"/>
<path d="M12185 5457 c-11 -8 -47 -24 -80 -37 -75 -29 -274 -126 -295 -144 -8
-7 -36 -23 -61 -34 -25 -12 -54 -30 -65 -39 -11 -10 -29 -23 -39 -29 -10 -6
-21 -17 -23 -25 -4 -11 -2 -11 8 -2 8 8 19 8 31 2 11 -5 28 -13 39 -19 15 -8
18 -7 14 5 -5 12 2 15 30 15 20 0 36 -5 36 -11 0 -13 24 10 33 31 4 12 6 11 6
-2 1 -19 21 -26 21 -8 0 6 4 10 10 10 5 0 7 -7 4 -15 -4 -10 0 -15 13 -15 29
0 35 -11 15 -27 -15 -12 -14 -13 13 -7 43 10 185 51 218 63 38 15 34 22 -10
15 -21 -3 -49 -1 -63 4 -18 7 -2 9 60 7 60 -2 92 2 108 12 12 7 28 11 35 8 7
-4 3 1 -7 9 -25 20 -45 20 -52 1 -4 -8 -10 -15 -15 -15 -5 0 -9 7 -9 15 0 11
-11 15 -40 15 -22 0 -40 4 -40 9 0 13 89 18 100 7 7 -7 10 -4 10 7 0 9 5 17
11 17 5 0 8 4 4 9 -3 6 3 8 13 6 10 -2 24 5 30 16 11 17 9 18 -21 12 -17 -3
-34 -9 -37 -12 -3 -4 -18 -12 -33 -19 -33 -14 -82 -6 -69 12 5 6 6 20 1 31
-17 42 -17 41 101 113 19 12 30 22 25 22 -6 0 -19 -6 -30 -13z m-358 -263 c-3
-3 -12 -4 -19 -1 -8 3 -5 6 6 6 11 1 17 -2 13 -5z m183 -24 c-8 -5 -19 -10
-25 -10 -5 0 -3 5 5 10 8 5 20 10 25 10 6 0 3 -5 -5 -10z"/>
<path d="M12305 5350 c3 -5 8 -10 11 -10 2 0 4 5 4 10 0 6 -5 10 -11 10 -5 0
-7 -4 -4 -10z"/>
<path d="M12237 5273 c-3 -5 6 -9 19 -9 13 -1 24 2 24 7 0 11 -37 12 -43 2z"/>
<path d="M12308 5253 c6 -2 18 -2 25 0 6 3 1 5 -13 5 -14 0 -19 -2 -12 -5z"/>
<path d="M12250 5240 c8 -5 24 -10 34 -10 26 0 18 6 -19 14 -22 5 -26 4 -15
-4z"/>
<path d="M11635 5130 c-3 -5 -1 -10 4 -10 6 0 11 5 11 10 0 6 -2 10 -4 10 -3
0 -8 -4 -11 -10z"/>
<path d="M11565 5120 c-3 -5 3 -10 14 -10 12 0 21 5 21 10 0 6 -6 10 -14 10
-8 0 -18 -4 -21 -10z"/>
<path d="M11755 5105 c19 -14 19 -15 1 -8 -14 4 -17 3 -12 -6 9 -13 71 -5 97
13 13 9 4 12 -44 14 -57 2 -60 1 -42 -13z"/>
<path d="M11615 5070 c-3 -5 1 -10 9 -10 8 0 18 5 21 10 3 6 -1 10 -9 10 -8 0
-18 -4 -21 -10z"/>
<path d="M11688 5073 c6 -2 18 -2 25 0 6 3 1 5 -13 5 -14 0 -19 -2 -12 -5z"/>
<path d="M13564 12445 c8 -8 18 -15 22 -15 3 0 1 7 -6 15 -7 8 -17 15 -22 15
-5 0 -3 -7 6 -15z"/>
<path d="M16761 12034 c0 -11 3 -14 6 -6 3 7 2 16 -1 19 -3 4 -6 -2 -5 -13z"/>
<path d="M16715 11990 c-4 -7 -3 -15 2 -19 6 -3 13 -13 16 -21 4 -11 6 -9 6 5
1 29 -14 51 -24 35z"/>
</g>
</svg>
